<svg width="1158" height="460" viewBox="0 0 1158 460" fill="none" xmlns="http://www.w3.org/2000/svg">
<g filter="url(#filter0_di_6_237)">
<rect x="133.227" y="28.4519" width="144.146" height="144.146" rx="12" transform="rotate(45 133.227 28.4519)" fill="#0E0E10"/>
<rect x="133.227" y="29.159" width="143.146" height="143.146" rx="11.5" transform="rotate(45 133.227 29.159)" stroke="url(#paint0_radial_6_237)"/>
</g>
<g filter="url(#filter1_di_6_237)">
<rect x="488.227" y="28.4519" width="144.146" height="144.146" rx="12" transform="rotate(45 488.227 28.4519)" fill="#0E0E10"/>
<rect x="488.227" y="29.159" width="143.146" height="143.146" rx="11.5" transform="rotate(45 488.227 29.159)" stroke="url(#paint1_radial_6_237)"/>
</g>
<g filter="url(#filter2_di_6_237)">
<rect x="843.227" y="28.4519" width="144.146" height="144.146" rx="12" transform="rotate(45 843.227 28.4519)" fill="#0E0E10"/>
<rect x="843.227" y="29.159" width="143.146" height="143.146" rx="11.5" transform="rotate(45 843.227 29.159)" stroke="url(#paint2_radial_6_237)"/>
</g>
<g filter="url(#filter3_di_6_237)">
<rect x="314.781" y="200" width="144.146" height="144.146" rx="12" transform="rotate(45 314.781 200)" fill="#0E0E10"/>
<rect x="314.781" y="200.707" width="143.146" height="143.146" rx="11.5" transform="rotate(45 314.781 200.707)" stroke="url(#paint3_radial_6_237)"/>
</g>
<g filter="url(#filter4_di_6_237)">
<rect x="669.781" y="200" width="144.146" height="144.146" rx="12" transform="rotate(45 669.781 200)" fill="#0E0E10"/>
<rect x="669.781" y="200.707" width="143.146" height="143.146" rx="11.5" transform="rotate(45 669.781 200.707)" stroke="url(#paint4_radial_6_237)"/>
</g>
<g filter="url(#filter5_di_6_237)">
<rect x="1024.78" y="200" width="144.146" height="144.146" rx="12" transform="rotate(45 1024.78 200)" fill="#0E0E10"/>
<rect x="1024.78" y="200.707" width="143.146" height="143.146" rx="11.5" transform="rotate(45 1024.78 200.707)" stroke="url(#paint5_radial_6_237)"/>
</g>
<rect x="133.227" y="0.866531" width="183.157" height="183.157" rx="17.5" transform="rotate(45 133.227 0.866531)" stroke="url(#paint6_radial_6_237)" stroke-dasharray="6 6"/>
<rect x="488.227" y="0.866531" width="183.157" height="183.157" rx="17.5" transform="rotate(45 488.227 0.866531)" stroke="url(#paint7_radial_6_237)" stroke-dasharray="6 6"/>
<rect x="843.227" y="0.866531" width="183.157" height="183.157" rx="17.5" transform="rotate(45 843.227 0.866531)" stroke="url(#paint8_radial_6_237)" stroke-dasharray="6 6"/>
<rect x="314.781" y="172.414" width="183.157" height="183.157" rx="17.5" transform="rotate(45 314.781 172.414)" stroke="url(#paint9_radial_6_237)" stroke-dasharray="6 6"/>
<rect x="669.781" y="172.414" width="183.157" height="183.157" rx="17.5" transform="rotate(45 669.781 172.414)" stroke="url(#paint10_radial_6_237)" stroke-dasharray="6 6"/>
<rect x="1024.78" y="172.414" width="183.157" height="183.157" rx="17.5" transform="rotate(45 1024.78 172.414)" stroke="url(#paint11_radial_6_237)" stroke-dasharray="6 6"/>
<path d="M236.394 228.248C236.947 228.248 237.394 227.8 237.394 227.248L237.394 218.248C237.394 217.696 236.947 217.248 236.394 217.248C235.842 217.248 235.394 217.696 235.394 218.248L235.394 226.248L227.394 226.248C226.842 226.248 226.394 226.696 226.394 227.248C226.394 227.8 226.842 228.248 227.394 228.248L236.394 228.248ZM212.144 204.412L235.687 227.955L237.101 226.541L213.559 202.998L212.144 204.412Z" fill="url(#paint12_linear_6_237)"/>
<path d="M587.129 228.248C587.681 228.248 588.129 227.8 588.129 227.248L588.129 218.248C588.129 217.696 587.681 217.248 587.129 217.248C586.576 217.248 586.129 217.696 586.129 218.248L586.129 226.248L578.129 226.248C577.576 226.248 577.129 226.696 577.129 227.248C577.129 227.8 577.576 228.248 578.129 228.248L587.129 228.248ZM562.879 204.412L586.422 227.955L587.836 226.541L564.293 202.998L562.879 204.412Z" fill="url(#paint13_linear_6_237)"/>
<path d="M945.16 228.248C945.712 228.248 946.16 227.8 946.16 227.248L946.16 218.248C946.16 217.696 945.712 217.248 945.16 217.248C944.608 217.248 944.16 217.696 944.16 218.248L944.16 226.248L936.16 226.248C935.608 226.248 935.16 226.696 935.16 227.248C935.16 227.8 935.608 228.248 936.16 228.248L945.16 228.248ZM920.91 204.412L944.453 227.955L945.867 226.541L922.324 202.998L920.91 204.412Z" fill="url(#paint14_linear_6_237)"/>
<path d="M413.269 202.706C413.822 202.706 414.269 203.153 414.269 203.706L414.269 212.706C414.269 213.258 413.822 213.706 413.269 213.706C412.717 213.706 412.269 213.258 412.269 212.706L412.269 204.706L404.269 204.706C403.717 204.706 403.269 204.258 403.269 203.706C403.269 203.153 403.717 202.706 404.269 202.706L413.269 202.706ZM389.019 226.541L412.562 202.998L413.976 204.413L390.434 227.955L389.019 226.541Z" fill="url(#paint15_linear_6_237)"/>
<path d="M764.004 202.706C764.556 202.706 765.004 203.153 765.004 203.706L765.004 212.706C765.004 213.258 764.556 213.706 764.004 213.706C763.451 213.706 763.004 213.258 763.004 212.706L763.004 204.706L755.004 204.706C754.451 204.706 754.004 204.258 754.004 203.706C754.004 203.153 754.451 202.706 755.004 202.706L764.004 202.706ZM739.754 226.541L763.297 202.998L764.711 204.413L741.168 227.955L739.754 226.541Z" fill="url(#paint16_linear_6_237)"/>
<path d="M89.3824 135.878V123.278H97.3204V125.042H91.3264V128.66H96.8164V130.424H91.3264V134.114H97.4104V135.878H89.3824ZM99.4911 135.878V127.004H101.309V128.048H101.597C101.765 127.736 102.035 127.46 102.407 127.22C102.779 126.98 103.283 126.86 103.919 126.86C104.579 126.86 105.107 126.998 105.503 127.274C105.911 127.538 106.217 127.88 106.421 128.3H106.709C106.913 127.892 107.207 127.55 107.591 127.274C107.987 126.998 108.545 126.86 109.265 126.86C109.841 126.86 110.351 126.98 110.795 127.22C111.239 127.448 111.593 127.796 111.857 128.264C112.121 128.72 112.253 129.29 112.253 129.974V135.878H110.399V130.118C110.399 129.578 110.249 129.164 109.949 128.876C109.661 128.576 109.247 128.426 108.707 128.426C108.131 128.426 107.669 128.612 107.321 128.984C106.973 129.356 106.799 129.89 106.799 130.586V135.878H104.945V130.118C104.945 129.578 104.795 129.164 104.495 128.876C104.207 128.576 103.793 128.426 103.253 128.426C102.677 128.426 102.215 128.612 101.867 128.984C101.519 129.356 101.345 129.89 101.345 130.586V135.878H99.4911ZM114.925 139.478V127.004H116.743V128.282H117.031C117.259 127.886 117.601 127.532 118.057 127.22C118.525 126.908 119.191 126.752 120.055 126.752C120.799 126.752 121.477 126.932 122.089 127.292C122.713 127.652 123.211 128.174 123.583 128.858C123.967 129.53 124.159 130.346 124.159 131.306V131.576C124.159 132.536 123.973 133.358 123.601 134.042C123.229 134.714 122.731 135.23 122.107 135.59C121.483 135.95 120.799 136.13 120.055 136.13C119.479 136.13 118.993 136.058 118.597 135.914C118.201 135.77 117.883 135.59 117.643 135.374C117.403 135.146 117.211 134.912 117.067 134.672H116.779V139.478H114.925ZM119.515 134.51C120.331 134.51 120.997 134.252 121.513 133.736C122.029 133.22 122.287 132.482 122.287 131.522V131.36C122.287 130.412 122.023 129.68 121.495 129.164C120.979 128.648 120.319 128.39 119.515 128.39C118.723 128.39 118.063 128.648 117.535 129.164C117.019 129.68 116.761 130.412 116.761 131.36V131.522C116.761 132.482 117.019 133.22 117.535 133.736C118.063 134.252 118.723 134.51 119.515 134.51ZM129.21 136.13C128.574 136.13 128.004 136.022 127.5 135.806C127.008 135.59 126.612 135.272 126.312 134.852C126.024 134.432 125.88 133.922 125.88 133.322C125.88 132.71 126.024 132.206 126.312 131.81C126.612 131.402 127.014 131.096 127.518 130.892C128.034 130.688 128.616 130.586 129.264 130.586H131.964V130.01C131.964 129.494 131.808 129.08 131.496 128.768C131.184 128.456 130.704 128.3 130.056 128.3C129.42 128.3 128.934 128.45 128.598 128.75C128.262 129.05 128.04 129.44 127.932 129.92L126.204 129.362C126.348 128.882 126.576 128.45 126.888 128.066C127.212 127.67 127.638 127.352 128.166 127.112C128.694 126.872 129.33 126.752 130.074 126.752C131.226 126.752 132.132 127.046 132.792 127.634C133.452 128.222 133.782 129.056 133.782 130.136V133.79C133.782 134.15 133.95 134.33 134.286 134.33H135.042V135.878H133.656C133.236 135.878 132.894 135.77 132.63 135.554C132.366 135.338 132.234 135.044 132.234 134.672V134.618H131.964C131.868 134.798 131.724 135.008 131.532 135.248C131.34 135.488 131.058 135.698 130.686 135.878C130.314 136.046 129.822 136.13 129.21 136.13ZM129.48 134.6C130.224 134.6 130.824 134.39 131.28 133.97C131.736 133.538 131.964 132.95 131.964 132.206V132.026H129.372C128.88 132.026 128.484 132.134 128.184 132.35C127.884 132.554 127.734 132.86 127.734 133.268C127.734 133.676 127.89 134 128.202 134.24C128.514 134.48 128.94 134.6 129.48 134.6ZM139.559 135.878C139.019 135.878 138.587 135.716 138.263 135.392C137.951 135.068 137.795 134.636 137.795 134.096V128.57H135.347V127.004H137.795V124.07H139.649V127.004H142.295V128.57H139.649V133.772C139.649 134.132 139.817 134.312 140.153 134.312H142.007V135.878H139.559ZM144.473 135.878V123.278H146.327V128.264H146.615C146.735 128.036 146.903 127.814 147.119 127.598C147.347 127.382 147.641 127.208 148.001 127.076C148.373 126.932 148.841 126.86 149.405 126.86C150.077 126.86 150.671 127.01 151.187 127.31C151.715 127.61 152.129 128.036 152.429 128.588C152.729 129.128 152.879 129.782 152.879 130.55V135.878H151.025V130.694C151.025 129.926 150.833 129.362 150.449 129.002C150.065 128.63 149.537 128.444 148.865 128.444C148.097 128.444 147.479 128.696 147.011 129.2C146.555 129.704 146.327 130.436 146.327 131.396V135.878H144.473ZM155.548 135.878V127.004H157.402V135.878H155.548ZM156.484 125.798C156.124 125.798 155.818 125.684 155.566 125.456C155.326 125.216 155.206 124.91 155.206 124.538C155.206 124.166 155.326 123.866 155.566 123.638C155.818 123.398 156.124 123.278 156.484 123.278C156.856 123.278 157.162 123.398 157.402 123.638C157.642 123.866 157.762 124.166 157.762 124.538C157.762 124.91 157.642 125.216 157.402 125.456C157.162 125.684 156.856 125.798 156.484 125.798ZM159.793 135.878V133.61L165.031 128.822V128.57H159.973V127.004H167.047V129.29L161.791 134.078V134.312H167.191V135.878H159.793ZM173.309 136.13C172.409 136.13 171.623 135.944 170.951 135.572C170.279 135.188 169.751 134.654 169.367 133.97C168.995 133.274 168.809 132.47 168.809 131.558V131.342C168.809 130.418 168.995 129.614 169.367 128.93C169.739 128.234 170.255 127.7 170.915 127.328C171.587 126.944 172.361 126.752 173.237 126.752C174.089 126.752 174.833 126.944 175.469 127.328C176.117 127.7 176.621 128.222 176.981 128.894C177.341 129.566 177.521 130.352 177.521 131.252V131.954H170.699C170.723 132.734 170.981 133.358 171.473 133.826C171.977 134.282 172.601 134.51 173.345 134.51C174.041 134.51 174.563 134.354 174.911 134.042C175.271 133.73 175.547 133.37 175.739 132.962L177.269 133.754C177.101 134.09 176.855 134.444 176.531 134.816C176.219 135.188 175.805 135.5 175.289 135.752C174.773 136.004 174.113 136.13 173.309 136.13ZM170.717 130.532H175.631C175.583 129.86 175.343 129.338 174.911 128.966C174.479 128.582 173.915 128.39 173.219 128.39C172.523 128.39 171.953 128.582 171.509 128.966C171.077 129.338 170.813 129.86 170.717 130.532Z" fill="#E6E6E6"/>
<path d="M462.127 135.878V123.278H464.071V135.878H462.127ZM470.424 136.13C469.692 136.13 469.014 135.95 468.39 135.59C467.766 135.23 467.262 134.714 466.878 134.042C466.506 133.358 466.32 132.536 466.32 131.576V131.306C466.32 130.358 466.506 129.542 466.878 128.858C467.25 128.174 467.748 127.652 468.372 127.292C468.996 126.932 469.68 126.752 470.424 126.752C471 126.752 471.48 126.824 471.864 126.968C472.26 127.112 472.584 127.298 472.836 127.526C473.088 127.742 473.28 127.97 473.412 128.21H473.7V123.278H475.554V135.878H473.736V134.618H473.448C473.22 135.002 472.872 135.35 472.404 135.662C471.948 135.974 471.288 136.13 470.424 136.13ZM470.946 134.51C471.75 134.51 472.41 134.252 472.926 133.736C473.454 133.22 473.718 132.482 473.718 131.522V131.36C473.718 130.412 473.46 129.68 472.944 129.164C472.428 128.648 471.762 128.39 470.946 128.39C470.154 128.39 469.494 128.648 468.966 129.164C468.45 129.68 468.192 130.412 468.192 131.36V131.522C468.192 132.482 468.45 133.22 468.966 133.736C469.494 134.252 470.154 134.51 470.946 134.51ZM482.351 136.13C481.451 136.13 480.665 135.944 479.993 135.572C479.321 135.188 478.793 134.654 478.409 133.97C478.037 133.274 477.851 132.47 477.851 131.558V131.342C477.851 130.418 478.037 129.614 478.409 128.93C478.781 128.234 479.297 127.7 479.957 127.328C480.629 126.944 481.403 126.752 482.279 126.752C483.131 126.752 483.875 126.944 484.511 127.328C485.159 127.7 485.663 128.222 486.023 128.894C486.383 129.566 486.563 130.352 486.563 131.252V131.954H479.741C479.765 132.734 480.023 133.358 480.515 133.826C481.019 134.282 481.643 134.51 482.387 134.51C483.083 134.51 483.605 134.354 483.953 134.042C484.313 133.73 484.589 133.37 484.781 132.962L486.311 133.754C486.143 134.09 485.897 134.444 485.573 134.816C485.261 135.188 484.847 135.5 484.331 135.752C483.815 136.004 483.155 136.13 482.351 136.13ZM479.759 130.532H484.673C484.625 129.86 484.385 129.338 483.953 128.966C483.521 128.582 482.957 128.39 482.261 128.39C481.565 128.39 480.995 128.582 480.551 128.966C480.119 129.338 479.855 129.86 479.759 130.532ZM491.549 136.13C490.913 136.13 490.343 136.022 489.839 135.806C489.347 135.59 488.951 135.272 488.651 134.852C488.363 134.432 488.219 133.922 488.219 133.322C488.219 132.71 488.363 132.206 488.651 131.81C488.951 131.402 489.353 131.096 489.857 130.892C490.373 130.688 490.955 130.586 491.603 130.586H494.303V130.01C494.303 129.494 494.147 129.08 493.835 128.768C493.523 128.456 493.043 128.3 492.395 128.3C491.759 128.3 491.273 128.45 490.937 128.75C490.601 129.05 490.379 129.44 490.271 129.92L488.543 129.362C488.687 128.882 488.915 128.45 489.227 128.066C489.551 127.67 489.977 127.352 490.505 127.112C491.033 126.872 491.669 126.752 492.413 126.752C493.565 126.752 494.471 127.046 495.131 127.634C495.791 128.222 496.121 129.056 496.121 130.136V133.79C496.121 134.15 496.289 134.33 496.625 134.33H497.381V135.878H495.995C495.575 135.878 495.233 135.77 494.969 135.554C494.705 135.338 494.573 135.044 494.573 134.672V134.618H494.303C494.207 134.798 494.063 135.008 493.871 135.248C493.679 135.488 493.397 135.698 493.025 135.878C492.653 136.046 492.161 136.13 491.549 136.13ZM491.819 134.6C492.563 134.6 493.163 134.39 493.619 133.97C494.075 133.538 494.303 132.95 494.303 132.206V132.026H491.711C491.219 132.026 490.823 132.134 490.523 132.35C490.223 132.554 490.073 132.86 490.073 133.268C490.073 133.676 490.229 134 490.541 134.24C490.853 134.48 491.279 134.6 491.819 134.6ZM501.898 135.878C501.358 135.878 500.926 135.716 500.602 135.392C500.29 135.068 500.134 134.636 500.134 134.096V128.57H497.686V127.004H500.134V124.07H501.988V127.004H504.634V128.57H501.988V133.772C501.988 134.132 502.156 134.312 502.492 134.312H504.346V135.878H501.898ZM510.564 136.13C509.664 136.13 508.878 135.944 508.206 135.572C507.534 135.188 507.006 134.654 506.622 133.97C506.25 133.274 506.064 132.47 506.064 131.558V131.342C506.064 130.418 506.25 129.614 506.622 128.93C506.994 128.234 507.51 127.7 508.17 127.328C508.842 126.944 509.616 126.752 510.492 126.752C511.344 126.752 512.088 126.944 512.724 127.328C513.372 127.7 513.876 128.222 514.236 128.894C514.596 129.566 514.776 130.352 514.776 131.252V131.954H507.954C507.978 132.734 508.236 133.358 508.728 133.826C509.232 134.282 509.856 134.51 510.6 134.51C511.296 134.51 511.818 134.354 512.166 134.042C512.526 133.73 512.802 133.37 512.994 132.962L514.524 133.754C514.356 134.09 514.11 134.444 513.786 134.816C513.474 135.188 513.06 135.5 512.544 135.752C512.028 136.004 511.368 136.13 510.564 136.13ZM507.972 130.532H512.886C512.838 129.86 512.598 129.338 512.166 128.966C511.734 128.582 511.17 128.39 510.474 128.39C509.778 128.39 509.208 128.582 508.764 128.966C508.332 129.338 508.068 129.86 507.972 130.532Z" fill="#E6E6E6"/>
<path d="M287.248 308.426V306.698H288.94V297.554H287.248V295.826H292.288C293.968 295.826 295.252 296.252 296.14 297.104C297.04 297.956 297.49 299.24 297.49 300.956V303.314C297.49 305.03 297.04 306.314 296.14 307.166C295.252 308.006 293.968 308.426 292.288 308.426H287.248ZM290.902 306.662H292.306C293.398 306.662 294.208 306.386 294.736 305.834C295.264 305.282 295.528 304.46 295.528 303.368V300.884C295.528 299.78 295.264 298.958 294.736 298.418C294.208 297.878 293.398 297.608 292.306 297.608H290.902V306.662ZM303.809 308.678C302.909 308.678 302.123 308.492 301.451 308.12C300.779 307.736 300.251 307.202 299.867 306.518C299.495 305.822 299.309 305.018 299.309 304.106V303.89C299.309 302.966 299.495 302.162 299.867 301.478C300.239 300.782 300.755 300.248 301.415 299.876C302.087 299.492 302.861 299.3 303.737 299.3C304.589 299.3 305.333 299.492 305.969 299.876C306.617 300.248 307.121 300.77 307.481 301.442C307.841 302.114 308.021 302.9 308.021 303.8V304.502H301.199C301.223 305.282 301.481 305.906 301.973 306.374C302.477 306.83 303.101 307.058 303.845 307.058C304.541 307.058 305.063 306.902 305.411 306.59C305.771 306.278 306.047 305.918 306.239 305.51L307.769 306.302C307.601 306.638 307.355 306.992 307.031 307.364C306.719 307.736 306.305 308.048 305.789 308.3C305.273 308.552 304.613 308.678 303.809 308.678ZM301.217 303.08H306.131C306.083 302.408 305.843 301.886 305.411 301.514C304.979 301.13 304.415 300.938 303.719 300.938C303.023 300.938 302.453 301.13 302.009 301.514C301.577 301.886 301.313 302.408 301.217 303.08ZM311.521 308.426V301.118H309.037V299.552H311.521V297.608C311.521 297.068 311.683 296.636 312.007 296.312C312.331 295.988 312.763 295.826 313.303 295.826H315.463V297.392H313.897C313.549 297.392 313.375 297.572 313.375 297.932V299.552H317.353V301.118H313.375V308.426H311.521ZM317.353 308.426V299.552H319.207V308.426H317.353ZM318.289 298.4C317.929 298.4 317.623 298.286 317.371 298.058C317.131 297.818 317.011 297.512 317.011 297.14C317.011 296.756 317.131 296.45 317.371 296.222C317.623 295.994 317.929 295.88 318.289 295.88C318.649 295.88 318.949 295.994 319.189 296.222C319.441 296.45 319.567 296.756 319.567 297.14C319.567 297.512 319.441 297.818 319.189 298.058C318.949 298.286 318.649 298.4 318.289 298.4ZM321.942 308.426V299.552H323.76V300.884H324.048C324.216 300.524 324.516 300.188 324.948 299.876C325.38 299.564 326.022 299.408 326.874 299.408C327.546 299.408 328.14 299.558 328.656 299.858C329.184 300.158 329.598 300.584 329.898 301.136C330.198 301.676 330.348 302.33 330.348 303.098V308.426H328.494V303.242C328.494 302.474 328.302 301.91 327.918 301.55C327.534 301.178 327.006 300.992 326.334 300.992C325.566 300.992 324.948 301.244 324.48 301.748C324.024 302.252 323.796 302.984 323.796 303.944V308.426H321.942ZM337.084 308.678C336.184 308.678 335.398 308.492 334.726 308.12C334.054 307.736 333.526 307.202 333.142 306.518C332.77 305.822 332.584 305.018 332.584 304.106V303.89C332.584 302.966 332.77 302.162 333.142 301.478C333.514 300.782 334.03 300.248 334.69 299.876C335.362 299.492 336.136 299.3 337.012 299.3C337.864 299.3 338.608 299.492 339.244 299.876C339.892 300.248 340.396 300.77 340.756 301.442C341.116 302.114 341.296 302.9 341.296 303.8V304.502H334.474C334.498 305.282 334.756 305.906 335.248 306.374C335.752 306.83 336.376 307.058 337.12 307.058C337.816 307.058 338.338 306.902 338.686 306.59C339.046 306.278 339.322 305.918 339.514 305.51L341.044 306.302C340.876 306.638 340.63 306.992 340.306 307.364C339.994 307.736 339.58 308.048 339.064 308.3C338.548 308.552 337.888 308.678 337.084 308.678ZM334.492 303.08H339.406C339.358 302.408 339.118 301.886 338.686 301.514C338.254 301.13 337.69 300.938 336.994 300.938C336.298 300.938 335.728 301.13 335.284 301.514C334.852 301.886 334.588 302.408 334.492 303.08Z" fill="#E6E6E6"/>
<path d="M801.973 126.63C800.425 126.63 799.195 126.198 798.283 125.334C797.371 124.458 796.915 123.198 796.915 121.554V118.602C796.915 116.958 797.371 115.704 798.283 114.84C799.195 113.964 800.425 113.526 801.973 113.526C803.521 113.526 804.751 113.964 805.663 114.84C806.587 115.704 807.049 116.958 807.049 118.602V121.554C807.049 123.198 806.587 124.458 805.663 125.334C804.751 126.198 803.521 126.63 801.973 126.63ZM801.973 124.884C802.969 124.884 803.737 124.596 804.277 124.02C804.817 123.432 805.087 122.634 805.087 121.626V118.53C805.087 117.522 804.817 116.73 804.277 116.154C803.737 115.566 802.969 115.272 801.973 115.272C801.001 115.272 800.239 115.566 799.687 116.154C799.135 116.73 798.859 117.522 798.859 118.53V121.626C798.859 122.634 799.135 123.432 799.687 124.02C800.239 124.596 801.001 124.884 801.973 124.884ZM802.747 129.456C802.231 129.456 801.811 129.294 801.487 128.97C801.175 128.658 801.019 128.232 801.019 127.692V126.378H802.927V127.368C802.927 127.728 803.095 127.908 803.431 127.908H804.547V129.456H802.747ZM812.806 126.54C812.134 126.54 811.534 126.39 811.006 126.09C810.478 125.79 810.064 125.364 809.764 124.812C809.464 124.26 809.314 123.6 809.314 122.832V117.504H811.168V122.706C811.168 123.474 811.36 124.044 811.744 124.416C812.128 124.776 812.662 124.956 813.346 124.956C814.102 124.956 814.708 124.704 815.164 124.2C815.632 123.684 815.866 122.946 815.866 121.986V117.504H817.72V126.378H815.902V125.046H815.614C815.446 125.406 815.146 125.748 814.714 126.072C814.282 126.384 813.646 126.54 812.806 126.54ZM823.215 126.63C822.579 126.63 822.009 126.522 821.505 126.306C821.013 126.09 820.617 125.772 820.317 125.352C820.029 124.932 819.885 124.422 819.885 123.822C819.885 123.21 820.029 122.706 820.317 122.31C820.617 121.902 821.019 121.596 821.523 121.392C822.039 121.188 822.621 121.086 823.269 121.086H825.969V120.51C825.969 119.994 825.813 119.58 825.501 119.268C825.189 118.956 824.709 118.8 824.061 118.8C823.425 118.8 822.939 118.95 822.603 119.25C822.267 119.55 822.045 119.94 821.937 120.42L820.209 119.862C820.353 119.382 820.581 118.95 820.893 118.566C821.217 118.17 821.643 117.852 822.171 117.612C822.699 117.372 823.335 117.252 824.079 117.252C825.231 117.252 826.137 117.546 826.797 118.134C827.457 118.722 827.787 119.556 827.787 120.636V124.29C827.787 124.65 827.955 124.83 828.291 124.83H829.047V126.378H827.661C827.241 126.378 826.899 126.27 826.635 126.054C826.371 125.838 826.239 125.544 826.239 125.172V125.118H825.969C825.873 125.298 825.729 125.508 825.537 125.748C825.345 125.988 825.063 126.198 824.691 126.378C824.319 126.546 823.827 126.63 823.215 126.63ZM823.485 125.1C824.229 125.1 824.829 124.89 825.285 124.47C825.741 124.038 825.969 123.45 825.969 122.706V122.526H823.377C822.885 122.526 822.489 122.634 822.189 122.85C821.889 123.054 821.739 123.36 821.739 123.768C821.739 124.176 821.895 124.5 822.207 124.74C822.519 124.98 822.945 125.1 823.485 125.1ZM830.849 126.378V113.778H832.703V126.378H830.849ZM835.455 126.378V117.504H837.309V126.378H835.455ZM836.391 116.298C836.031 116.298 835.725 116.184 835.473 115.956C835.233 115.716 835.113 115.41 835.113 115.038C835.113 114.666 835.233 114.366 835.473 114.138C835.725 113.898 836.031 113.778 836.391 113.778C836.763 113.778 837.069 113.898 837.309 114.138C837.549 114.366 837.669 114.666 837.669 115.038C837.669 115.41 837.549 115.716 837.309 115.956C837.069 116.184 836.763 116.298 836.391 116.298ZM843.39 126.378C842.85 126.378 842.418 126.216 842.094 125.892C841.782 125.568 841.626 125.136 841.626 124.596V119.07H839.178V117.504H841.626V114.57H843.48V117.504H846.126V119.07H843.48V124.272C843.48 124.632 843.648 124.812 843.984 124.812H845.838V126.378H843.39ZM851.041 126.63C850.405 126.63 849.835 126.522 849.331 126.306C848.839 126.09 848.443 125.772 848.143 125.352C847.855 124.932 847.711 124.422 847.711 123.822C847.711 123.21 847.855 122.706 848.143 122.31C848.443 121.902 848.845 121.596 849.349 121.392C849.865 121.188 850.447 121.086 851.095 121.086H853.795V120.51C853.795 119.994 853.639 119.58 853.327 119.268C853.015 118.956 852.535 118.8 851.887 118.8C851.251 118.8 850.765 118.95 850.429 119.25C850.093 119.55 849.871 119.94 849.763 120.42L848.035 119.862C848.179 119.382 848.407 118.95 848.719 118.566C849.043 118.17 849.469 117.852 849.997 117.612C850.525 117.372 851.161 117.252 851.905 117.252C853.057 117.252 853.963 117.546 854.623 118.134C855.283 118.722 855.613 119.556 855.613 120.636V124.29C855.613 124.65 855.781 124.83 856.117 124.83H856.873V126.378H855.487C855.067 126.378 854.725 126.27 854.461 126.054C854.197 125.838 854.065 125.544 854.065 125.172V125.118H853.795C853.699 125.298 853.555 125.508 853.363 125.748C853.171 125.988 852.889 126.198 852.517 126.378C852.145 126.546 851.653 126.63 851.041 126.63ZM851.311 125.1C852.055 125.1 852.655 124.89 853.111 124.47C853.567 124.038 853.795 123.45 853.795 122.706V122.526H851.203C850.711 122.526 850.315 122.634 850.015 122.85C849.715 123.054 849.565 123.36 849.565 123.768C849.565 124.176 849.721 124.5 850.033 124.74C850.345 124.98 850.771 125.1 851.311 125.1ZM861.39 126.378C860.85 126.378 860.418 126.216 860.094 125.892C859.782 125.568 859.626 125.136 859.626 124.596V119.07H857.178V117.504H859.626V114.57H861.48V117.504H864.126V119.07H861.48V124.272C861.48 124.632 861.648 124.812 861.984 124.812H863.838V126.378H861.39ZM866.305 126.378V117.504H868.159V126.378H866.305ZM867.241 116.298C866.881 116.298 866.575 116.184 866.323 115.956C866.083 115.716 865.963 115.41 865.963 115.038C865.963 114.666 866.083 114.366 866.323 114.138C866.575 113.898 866.881 113.778 867.241 113.778C867.613 113.778 867.919 113.898 868.159 114.138C868.399 114.366 868.519 114.666 868.519 115.038C868.519 115.41 868.399 115.716 868.159 115.956C867.919 116.184 867.613 116.298 867.241 116.298ZM872.962 126.378L869.974 117.504H871.936L874.294 125.01H874.582L876.94 117.504H878.902L875.914 126.378H872.962ZM884.453 126.63C883.553 126.63 882.767 126.444 882.095 126.072C881.423 125.688 880.895 125.154 880.511 124.47C880.139 123.774 879.953 122.97 879.953 122.058V121.842C879.953 120.918 880.139 120.114 880.511 119.43C880.883 118.734 881.399 118.2 882.059 117.828C882.731 117.444 883.505 117.252 884.381 117.252C885.233 117.252 885.977 117.444 886.613 117.828C887.261 118.2 887.765 118.722 888.125 119.394C888.485 120.066 888.665 120.852 888.665 121.752V122.454H881.843C881.867 123.234 882.125 123.858 882.617 124.326C883.121 124.782 883.745 125.01 884.489 125.01C885.185 125.01 885.707 124.854 886.055 124.542C886.415 124.23 886.691 123.87 886.883 123.462L888.413 124.254C888.245 124.59 887.999 124.944 887.675 125.316C887.363 125.688 886.949 126 886.433 126.252C885.917 126.504 885.257 126.63 884.453 126.63ZM881.861 121.032H886.775C886.727 120.36 886.487 119.838 886.055 119.466C885.623 119.082 885.059 118.89 884.363 118.89C883.667 118.89 883.097 119.082 882.653 119.466C882.221 119.838 881.957 120.36 881.861 121.032ZM829.451 147.378C828.911 147.378 828.479 147.216 828.155 146.892C827.843 146.568 827.687 146.136 827.687 145.596V140.07H825.239V138.504H827.687V135.57H829.541V138.504H832.187V140.07H829.541V145.272C829.541 145.632 829.709 145.812 830.045 145.812H831.899V147.378H829.451ZM838.117 147.63C837.217 147.63 836.431 147.444 835.759 147.072C835.087 146.688 834.559 146.154 834.175 145.47C833.803 144.774 833.617 143.97 833.617 143.058V142.842C833.617 141.918 833.803 141.114 834.175 140.43C834.547 139.734 835.063 139.2 835.723 138.828C836.395 138.444 837.169 138.252 838.045 138.252C838.897 138.252 839.641 138.444 840.277 138.828C840.925 139.2 841.429 139.722 841.789 140.394C842.149 141.066 842.329 141.852 842.329 142.752V143.454H835.507C835.531 144.234 835.789 144.858 836.281 145.326C836.785 145.782 837.409 146.01 838.153 146.01C838.849 146.01 839.371 145.854 839.719 145.542C840.079 145.23 840.355 144.87 840.547 144.462L842.077 145.254C841.909 145.59 841.663 145.944 841.339 146.316C841.027 146.688 840.613 147 840.097 147.252C839.581 147.504 838.921 147.63 838.117 147.63ZM835.525 142.032H840.439C840.391 141.36 840.151 140.838 839.719 140.466C839.287 140.082 838.723 139.89 838.027 139.89C837.331 139.89 836.761 140.082 836.317 140.466C835.885 140.838 835.621 141.36 835.525 142.032ZM848.196 147.63C847.068 147.63 846.132 147.378 845.388 146.874C844.644 146.37 844.188 145.608 844.02 144.588L845.748 144.174C845.844 144.666 846.006 145.056 846.234 145.344C846.462 145.632 846.744 145.836 847.08 145.956C847.428 146.076 847.8 146.136 848.196 146.136C848.784 146.136 849.234 146.022 849.546 145.794C849.87 145.566 850.032 145.272 850.032 144.912C850.032 144.552 849.882 144.288 849.582 144.12C849.282 143.952 848.838 143.814 848.25 143.706L847.638 143.598C847.038 143.49 846.492 143.334 846 143.13C845.508 142.926 845.118 142.644 844.83 142.284C844.542 141.924 844.398 141.462 844.398 140.898C844.398 140.058 844.71 139.41 845.334 138.954C845.958 138.486 846.786 138.252 847.818 138.252C848.814 138.252 849.63 138.48 850.266 138.936C850.914 139.38 851.334 139.986 851.526 140.754L849.798 141.24C849.69 140.7 849.462 140.322 849.114 140.106C848.766 139.878 848.334 139.764 847.818 139.764C847.314 139.764 846.918 139.86 846.63 140.052C846.342 140.232 846.198 140.49 846.198 140.826C846.198 141.186 846.336 141.45 846.612 141.618C846.9 141.786 847.284 141.912 847.764 141.996L848.394 142.104C849.03 142.212 849.612 142.362 850.14 142.554C850.668 142.746 851.082 143.022 851.382 143.382C851.694 143.742 851.85 144.222 851.85 144.822C851.85 145.71 851.52 146.4 850.86 146.892C850.2 147.384 849.312 147.63 848.196 147.63ZM857.154 147.378C856.614 147.378 856.182 147.216 855.858 146.892C855.546 146.568 855.39 146.136 855.39 145.596V140.07H852.942V138.504H855.39V135.57H857.244V138.504H859.89V140.07H857.244V145.272C857.244 145.632 857.412 145.812 857.748 145.812H859.602V147.378H857.154Z" fill="#E6E6E6"/>
<path d="M976.794 298.178C975.246 298.178 974.016 297.746 973.104 296.882C972.192 296.006 971.736 294.746 971.736 293.102V290.15C971.736 288.506 972.192 287.252 973.104 286.388C974.016 285.512 975.246 285.074 976.794 285.074C978.342 285.074 979.572 285.512 980.484 286.388C981.408 287.252 981.87 288.506 981.87 290.15V293.102C981.87 294.746 981.408 296.006 980.484 296.882C979.572 297.746 978.342 298.178 976.794 298.178ZM976.794 296.432C977.79 296.432 978.558 296.144 979.098 295.568C979.638 294.98 979.908 294.182 979.908 293.174V290.078C979.908 289.07 979.638 288.278 979.098 287.702C978.558 287.114 977.79 286.82 976.794 286.82C975.822 286.82 975.06 287.114 974.508 287.702C973.956 288.278 973.68 289.07 973.68 290.078V293.174C973.68 294.182 973.956 294.98 974.508 295.568C975.06 296.144 975.822 296.432 976.794 296.432ZM977.568 301.004C977.052 301.004 976.632 300.842 976.308 300.518C975.996 300.206 975.84 299.78 975.84 299.24V297.926H977.748V298.916C977.748 299.276 977.916 299.456 978.252 299.456H979.368V301.004H977.568ZM987.627 298.088C986.955 298.088 986.355 297.938 985.827 297.638C985.299 297.338 984.885 296.912 984.585 296.36C984.285 295.808 984.135 295.148 984.135 294.38V289.052H985.989V294.254C985.989 295.022 986.181 295.592 986.565 295.964C986.949 296.324 987.483 296.504 988.167 296.504C988.923 296.504 989.529 296.252 989.985 295.748C990.453 295.232 990.687 294.494 990.687 293.534V289.052H992.541V297.926H990.723V296.594H990.435C990.267 296.954 989.967 297.296 989.535 297.62C989.103 297.932 988.467 298.088 987.627 298.088ZM998.036 298.178C997.4 298.178 996.83 298.07 996.326 297.854C995.834 297.638 995.438 297.32 995.138 296.9C994.85 296.48 994.706 295.97 994.706 295.37C994.706 294.758 994.85 294.254 995.138 293.858C995.438 293.45 995.84 293.144 996.344 292.94C996.86 292.736 997.442 292.634 998.09 292.634H1000.79V292.058C1000.79 291.542 1000.63 291.128 1000.32 290.816C1000.01 290.504 999.53 290.348 998.882 290.348C998.246 290.348 997.76 290.498 997.424 290.798C997.088 291.098 996.866 291.488 996.758 291.968L995.03 291.41C995.174 290.93 995.402 290.498 995.714 290.114C996.038 289.718 996.464 289.4 996.992 289.16C997.52 288.92 998.156 288.8 998.9 288.8C1000.05 288.8 1000.96 289.094 1001.62 289.682C1002.28 290.27 1002.61 291.104 1002.61 292.184V295.838C1002.61 296.198 1002.78 296.378 1003.11 296.378H1003.87V297.926H1002.48C1002.06 297.926 1001.72 297.818 1001.46 297.602C1001.19 297.386 1001.06 297.092 1001.06 296.72V296.666H1000.79C1000.69 296.846 1000.55 297.056 1000.36 297.296C1000.17 297.536 999.884 297.746 999.512 297.926C999.14 298.094 998.648 298.178 998.036 298.178ZM998.306 296.648C999.05 296.648 999.65 296.438 1000.11 296.018C1000.56 295.586 1000.79 294.998 1000.79 294.254V294.074H998.198C997.706 294.074 997.31 294.182 997.01 294.398C996.71 294.602 996.56 294.908 996.56 295.316C996.56 295.724 996.716 296.048 997.028 296.288C997.34 296.528 997.766 296.648 998.306 296.648ZM1005.67 297.926V289.052H1007.49V290.384H1007.78C1007.94 290.024 1008.24 289.688 1008.68 289.376C1009.11 289.064 1009.75 288.908 1010.6 288.908C1011.27 288.908 1011.87 289.058 1012.38 289.358C1012.91 289.658 1013.33 290.084 1013.63 290.636C1013.93 291.176 1014.08 291.83 1014.08 292.598V297.926H1012.22V292.742C1012.22 291.974 1012.03 291.41 1011.65 291.05C1011.26 290.678 1010.73 290.492 1010.06 290.492C1009.29 290.492 1008.68 290.744 1008.21 291.248C1007.75 291.752 1007.52 292.484 1007.52 293.444V297.926H1005.67ZM1019.83 297.926C1019.29 297.926 1018.86 297.764 1018.53 297.44C1018.22 297.116 1018.06 296.684 1018.06 296.144V290.618H1015.62V289.052H1018.06V286.118H1019.92V289.052H1022.56V290.618H1019.92V295.82C1019.92 296.18 1020.09 296.36 1020.42 296.36H1022.28V297.926H1019.83ZM1024.74 297.926V289.052H1026.6V297.926H1024.74ZM1025.68 287.846C1025.32 287.846 1025.01 287.732 1024.76 287.504C1024.52 287.264 1024.4 286.958 1024.4 286.586C1024.4 286.214 1024.52 285.914 1024.76 285.686C1025.01 285.446 1025.32 285.326 1025.68 285.326C1026.05 285.326 1026.36 285.446 1026.6 285.686C1026.84 285.914 1026.96 286.214 1026.96 286.586C1026.96 286.958 1026.84 287.264 1026.6 287.504C1026.36 287.732 1026.05 287.846 1025.68 287.846ZM1032.68 297.926C1032.14 297.926 1031.71 297.764 1031.38 297.44C1031.07 297.116 1030.91 296.684 1030.91 296.144V290.618H1028.47V289.052H1030.91V286.118H1032.77V289.052H1035.41V290.618H1032.77V295.82C1032.77 296.18 1032.94 296.36 1033.27 296.36H1035.13V297.926H1032.68ZM1040.33 298.178C1039.69 298.178 1039.12 298.07 1038.62 297.854C1038.13 297.638 1037.73 297.32 1037.43 296.9C1037.14 296.48 1037 295.97 1037 295.37C1037 294.758 1037.14 294.254 1037.43 293.858C1037.73 293.45 1038.13 293.144 1038.64 292.94C1039.15 292.736 1039.74 292.634 1040.38 292.634H1043.08V292.058C1043.08 291.542 1042.93 291.128 1042.62 290.816C1042.3 290.504 1041.82 290.348 1041.18 290.348C1040.54 290.348 1040.05 290.498 1039.72 290.798C1039.38 291.098 1039.16 291.488 1039.05 291.968L1037.32 291.41C1037.47 290.93 1037.7 290.498 1038.01 290.114C1038.33 289.718 1038.76 289.4 1039.29 289.16C1039.81 288.92 1040.45 288.8 1041.19 288.8C1042.35 288.8 1043.25 289.094 1043.91 289.682C1044.57 290.27 1044.9 291.104 1044.9 292.184V295.838C1044.9 296.198 1045.07 296.378 1045.41 296.378H1046.16V297.926H1044.78C1044.36 297.926 1044.01 297.818 1043.75 297.602C1043.49 297.386 1043.35 297.092 1043.35 296.72V296.666H1043.08C1042.99 296.846 1042.84 297.056 1042.65 297.296C1042.46 297.536 1042.18 297.746 1041.81 297.926C1041.43 298.094 1040.94 298.178 1040.33 298.178ZM1040.6 296.648C1041.34 296.648 1041.94 296.438 1042.4 296.018C1042.86 295.586 1043.08 294.998 1043.08 294.254V294.074H1040.49C1040 294.074 1039.6 294.182 1039.3 294.398C1039 294.602 1038.85 294.908 1038.85 295.316C1038.85 295.724 1039.01 296.048 1039.32 296.288C1039.63 296.528 1040.06 296.648 1040.6 296.648ZM1050.68 297.926C1050.14 297.926 1049.71 297.764 1049.38 297.44C1049.07 297.116 1048.91 296.684 1048.91 296.144V290.618H1046.47V289.052H1048.91V286.118H1050.77V289.052H1053.41V290.618H1050.77V295.82C1050.77 296.18 1050.94 296.36 1051.27 296.36H1053.13V297.926H1050.68ZM1055.59 297.926V289.052H1057.45V297.926H1055.59ZM1056.53 287.846C1056.17 287.846 1055.86 287.732 1055.61 287.504C1055.37 287.264 1055.25 286.958 1055.25 286.586C1055.25 286.214 1055.37 285.914 1055.61 285.686C1055.86 285.446 1056.17 285.326 1056.53 285.326C1056.9 285.326 1057.21 285.446 1057.45 285.686C1057.69 285.914 1057.81 286.214 1057.81 286.586C1057.81 286.958 1057.69 287.264 1057.45 287.504C1057.21 287.732 1056.9 287.846 1056.53 287.846ZM1062.25 297.926L1059.26 289.052H1061.22L1063.58 296.558H1063.87L1066.23 289.052H1068.19L1065.2 297.926H1062.25ZM1073.74 298.178C1072.84 298.178 1072.05 297.992 1071.38 297.62C1070.71 297.236 1070.18 296.702 1069.8 296.018C1069.43 295.322 1069.24 294.518 1069.24 293.606V293.39C1069.24 292.466 1069.43 291.662 1069.8 290.978C1070.17 290.282 1070.69 289.748 1071.35 289.376C1072.02 288.992 1072.79 288.8 1073.67 288.8C1074.52 288.8 1075.26 288.992 1075.9 289.376C1076.55 289.748 1077.05 290.27 1077.41 290.942C1077.77 291.614 1077.95 292.4 1077.95 293.3V294.002H1071.13C1071.15 294.782 1071.41 295.406 1071.9 295.874C1072.41 296.33 1073.03 296.558 1073.78 296.558C1074.47 296.558 1074.99 296.402 1075.34 296.09C1075.7 295.778 1075.98 295.418 1076.17 295.01L1077.7 295.802C1077.53 296.138 1077.29 296.492 1076.96 296.864C1076.65 297.236 1076.24 297.548 1075.72 297.8C1075.2 298.052 1074.54 298.178 1073.74 298.178ZM1071.15 292.58H1076.06C1076.01 291.908 1075.77 291.386 1075.34 291.014C1074.91 290.63 1074.35 290.438 1073.65 290.438C1072.95 290.438 1072.38 290.63 1071.94 291.014C1071.51 291.386 1071.24 291.908 1071.15 292.58ZM1011.51 318.926C1010.97 318.926 1010.53 318.764 1010.21 318.44C1009.9 318.116 1009.74 317.684 1009.74 317.144V311.618H1007.29V310.052H1009.74V307.118H1011.6V310.052H1014.24V311.618H1011.6V316.82C1011.6 317.18 1011.76 317.36 1012.1 317.36H1013.95V318.926H1011.51ZM1020.17 319.178C1019.27 319.178 1018.49 318.992 1017.81 318.62C1017.14 318.236 1016.61 317.702 1016.23 317.018C1015.86 316.322 1015.67 315.518 1015.67 314.606V314.39C1015.67 313.466 1015.86 312.662 1016.23 311.978C1016.6 311.282 1017.12 310.748 1017.78 310.376C1018.45 309.992 1019.22 309.8 1020.1 309.8C1020.95 309.8 1021.7 309.992 1022.33 310.376C1022.98 310.748 1023.48 311.27 1023.84 311.942C1024.2 312.614 1024.38 313.4 1024.38 314.3V315.002H1017.56C1017.59 315.782 1017.84 316.406 1018.34 316.874C1018.84 317.33 1019.46 317.558 1020.21 317.558C1020.9 317.558 1021.43 317.402 1021.77 317.09C1022.13 316.778 1022.41 316.418 1022.6 316.01L1024.13 316.802C1023.96 317.138 1023.72 317.492 1023.39 317.864C1023.08 318.236 1022.67 318.548 1022.15 318.8C1021.64 319.052 1020.98 319.178 1020.17 319.178ZM1017.58 313.58H1022.49C1022.45 312.908 1022.21 312.386 1021.77 312.014C1021.34 311.63 1020.78 311.438 1020.08 311.438C1019.39 311.438 1018.82 311.63 1018.37 312.014C1017.94 312.386 1017.68 312.908 1017.58 313.58ZM1030.25 319.178C1029.12 319.178 1028.19 318.926 1027.44 318.422C1026.7 317.918 1026.24 317.156 1026.08 316.136L1027.8 315.722C1027.9 316.214 1028.06 316.604 1028.29 316.892C1028.52 317.18 1028.8 317.384 1029.14 317.504C1029.48 317.624 1029.86 317.684 1030.25 317.684C1030.84 317.684 1031.29 317.57 1031.6 317.342C1031.93 317.114 1032.09 316.82 1032.09 316.46C1032.09 316.1 1031.94 315.836 1031.64 315.668C1031.34 315.5 1030.89 315.362 1030.31 315.254L1029.69 315.146C1029.09 315.038 1028.55 314.882 1028.06 314.678C1027.56 314.474 1027.17 314.192 1026.89 313.832C1026.6 313.472 1026.45 313.01 1026.45 312.446C1026.45 311.606 1026.77 310.958 1027.39 310.502C1028.01 310.034 1028.84 309.8 1029.87 309.8C1030.87 309.8 1031.69 310.028 1032.32 310.484C1032.97 310.928 1033.39 311.534 1033.58 312.302L1031.85 312.788C1031.75 312.248 1031.52 311.87 1031.17 311.654C1030.82 311.426 1030.39 311.312 1029.87 311.312C1029.37 311.312 1028.97 311.408 1028.69 311.6C1028.4 311.78 1028.25 312.038 1028.25 312.374C1028.25 312.734 1028.39 312.998 1028.67 313.166C1028.96 313.334 1029.34 313.46 1029.82 313.544L1030.45 313.652C1031.09 313.76 1031.67 313.91 1032.2 314.102C1032.72 314.294 1033.14 314.57 1033.44 314.93C1033.75 315.29 1033.91 315.77 1033.91 316.37C1033.91 317.258 1033.58 317.948 1032.92 318.44C1032.26 318.932 1031.37 319.178 1030.25 319.178ZM1039.21 318.926C1038.67 318.926 1038.24 318.764 1037.91 318.44C1037.6 318.116 1037.44 317.684 1037.44 317.144V311.618H1035V310.052H1037.44V307.118H1039.3V310.052H1041.94V311.618H1039.3V316.82C1039.3 317.18 1039.47 317.36 1039.8 317.36H1041.66V318.926H1039.21Z" fill="#E6E6E6"/>
<path d="M626.974 308.426V295.826H631.978C632.746 295.826 633.43 295.982 634.03 296.294C634.642 296.594 635.116 297.026 635.452 297.59C635.8 298.142 635.974 298.808 635.974 299.588V299.822C635.974 300.602 635.794 301.274 635.434 301.838C635.086 302.402 634.612 302.834 634.012 303.134C633.412 303.434 632.734 303.584 631.978 303.584H628.918V308.426H626.974ZM628.918 301.82H631.78C632.464 301.82 633.01 301.64 633.418 301.28C633.826 300.92 634.03 300.428 634.03 299.804V299.624C634.03 298.988 633.826 298.49 633.418 298.13C633.01 297.77 632.464 297.59 631.78 297.59H628.918V301.82ZM637.874 308.426V299.552H639.692V300.596H639.98C640.124 300.224 640.352 299.954 640.664 299.786C640.988 299.606 641.384 299.516 641.852 299.516H642.914V301.19H641.78C641.18 301.19 640.688 301.358 640.304 301.694C639.92 302.018 639.728 302.522 639.728 303.206V308.426H637.874ZM648.676 308.678C647.788 308.678 646.996 308.498 646.3 308.138C645.616 307.766 645.076 307.238 644.68 306.554C644.284 305.87 644.086 305.06 644.086 304.124V303.854C644.086 302.918 644.284 302.114 644.68 301.442C645.076 300.758 645.616 300.23 646.3 299.858C646.996 299.486 647.788 299.3 648.676 299.3C649.564 299.3 650.356 299.486 651.052 299.858C651.748 300.23 652.294 300.758 652.69 301.442C653.086 302.114 653.284 302.918 653.284 303.854V304.124C653.284 305.06 653.086 305.87 652.69 306.554C652.294 307.238 651.748 307.766 651.052 308.138C650.356 308.498 649.564 308.678 648.676 308.678ZM648.676 307.022C649.492 307.022 650.152 306.764 650.656 306.248C651.172 305.72 651.43 304.994 651.43 304.07V303.908C651.43 302.984 651.178 302.264 650.674 301.748C650.17 301.22 649.504 300.956 648.676 300.956C647.872 300.956 647.212 301.22 646.696 301.748C646.192 302.264 645.94 302.984 645.94 303.908V304.07C645.94 304.994 646.192 305.72 646.696 306.248C647.212 306.764 647.872 307.022 648.676 307.022ZM658.589 308.426C658.049 308.426 657.617 308.264 657.293 307.94C656.981 307.616 656.825 307.184 656.825 306.644V301.118H654.377V299.552H656.825V296.618H658.679V299.552H661.325V301.118H658.679V306.32C658.679 306.68 658.847 306.86 659.183 306.86H661.037V308.426H658.589ZM667.344 308.678C666.456 308.678 665.664 308.498 664.968 308.138C664.284 307.766 663.744 307.238 663.348 306.554C662.952 305.87 662.754 305.06 662.754 304.124V303.854C662.754 302.918 662.952 302.114 663.348 301.442C663.744 300.758 664.284 300.23 664.968 299.858C665.664 299.486 666.456 299.3 667.344 299.3C668.232 299.3 669.024 299.486 669.72 299.858C670.416 300.23 670.962 300.758 671.358 301.442C671.754 302.114 671.952 302.918 671.952 303.854V304.124C671.952 305.06 671.754 305.87 671.358 306.554C670.962 307.238 670.416 307.766 669.72 308.138C669.024 308.498 668.232 308.678 667.344 308.678ZM667.344 307.022C668.16 307.022 668.82 306.764 669.324 306.248C669.84 305.72 670.098 304.994 670.098 304.07V303.908C670.098 302.984 669.846 302.264 669.342 301.748C668.838 301.22 668.172 300.956 667.344 300.956C666.54 300.956 665.88 301.22 665.364 301.748C664.86 302.264 664.608 302.984 664.608 303.908V304.07C664.608 304.994 664.86 305.72 665.364 306.248C665.88 306.764 666.54 307.022 667.344 307.022ZM677.257 308.426C676.717 308.426 676.285 308.264 675.961 307.94C675.649 307.616 675.493 307.184 675.493 306.644V301.118H673.045V299.552H675.493V296.618H677.347V299.552H679.993V301.118H677.347V306.32C677.347 306.68 677.515 306.86 677.851 306.86H679.705V308.426H677.257ZM683.197 312.026V310.406H688.147C688.483 310.406 688.651 310.226 688.651 309.866V307.13H688.363C688.255 307.37 688.087 307.604 687.859 307.832C687.643 308.048 687.349 308.228 686.977 308.372C686.605 308.516 686.137 308.588 685.573 308.588C684.901 308.588 684.301 308.438 683.773 308.138C683.245 307.838 682.831 307.412 682.531 306.86C682.231 306.308 682.081 305.654 682.081 304.898V299.552H683.935V304.754C683.935 305.522 684.127 306.092 684.511 306.464C684.895 306.824 685.429 307.004 686.113 307.004C686.869 307.004 687.475 306.752 687.931 306.248C688.399 305.744 688.633 305.012 688.633 304.052V299.552H690.487V310.244C690.487 310.784 690.325 311.216 690.001 311.54C689.689 311.864 689.257 312.026 688.705 312.026H683.197ZM693.227 312.026V299.552H695.045V300.83H695.333C695.561 300.434 695.903 300.08 696.359 299.768C696.827 299.456 697.493 299.3 698.357 299.3C699.101 299.3 699.779 299.48 700.391 299.84C701.015 300.2 701.513 300.722 701.885 301.406C702.269 302.078 702.461 302.894 702.461 303.854V304.124C702.461 305.084 702.275 305.906 701.903 306.59C701.531 307.262 701.033 307.778 700.409 308.138C699.785 308.498 699.101 308.678 698.357 308.678C697.781 308.678 697.295 308.606 696.899 308.462C696.503 308.318 696.185 308.138 695.945 307.922C695.705 307.694 695.513 307.46 695.369 307.22H695.081V312.026H693.227ZM697.817 307.058C698.633 307.058 699.299 306.8 699.815 306.284C700.331 305.768 700.589 305.03 700.589 304.07V303.908C700.589 302.96 700.325 302.228 699.797 301.712C699.281 301.196 698.621 300.938 697.817 300.938C697.025 300.938 696.365 301.196 695.837 301.712C695.321 302.228 695.063 302.96 695.063 303.908V304.07C695.063 305.03 695.321 305.768 695.837 306.284C696.365 306.8 697.025 307.058 697.817 307.058ZM708.827 308.678C707.927 308.678 707.141 308.492 706.469 308.12C705.797 307.736 705.269 307.202 704.885 306.518C704.513 305.822 704.327 305.018 704.327 304.106V303.89C704.327 302.966 704.513 302.162 704.885 301.478C705.257 300.782 705.773 300.248 706.433 299.876C707.105 299.492 707.879 299.3 708.755 299.3C709.607 299.3 710.351 299.492 710.987 299.876C711.635 300.248 712.139 300.77 712.499 301.442C712.859 302.114 713.039 302.9 713.039 303.8V304.502H706.217C706.241 305.282 706.499 305.906 706.991 306.374C707.495 306.83 708.119 307.058 708.863 307.058C709.559 307.058 710.081 306.902 710.429 306.59C710.789 306.278 711.065 305.918 711.257 305.51L712.787 306.302C712.619 306.638 712.373 306.992 712.049 307.364C711.737 307.736 711.323 308.048 710.807 308.3C710.291 308.552 709.631 308.678 708.827 308.678ZM706.235 303.08H711.149C711.101 302.408 710.861 301.886 710.429 301.514C709.997 301.13 709.433 300.938 708.737 300.938C708.041 300.938 707.471 301.13 707.027 301.514C706.595 301.886 706.331 302.408 706.235 303.08Z" fill="#E6E6E6"/>
<defs>
<filter id="filter0_di_6_237" x="0.270863" y="22.4225" width="265.911" height="265.911" filterUnits="userSpaceOnUse" color-interpolation-filters="sRGB">
<feFlood flood-opacity="0" result="BackgroundImageFix"/>
<feColorMatrix in="SourceAlpha" type="matrix" values="0 0 0 0 0 0 0 0 0 0 0 0 0 0 0 0 0 0 127 0" result="hardAlpha"/>
<feOffset dy="25"/>
<feGaussianBlur stdDeviation="18"/>
<feComposite in2="hardAlpha" operator="out"/>
<feColorMatrix type="matrix" values="0 0 0 0 0 0 0 0 0 0 0 0 0 0 0 0 0 0 0.1 0"/>
<feBlend mode="normal" in2="BackgroundImageFix" result="effect1_dropShadow_6_237"/>
<feBlend mode="normal" in="SourceGraphic" in2="effect1_dropShadow_6_237" result="shape"/>
<feColorMatrix in="SourceAlpha" type="matrix" values="0 0 0 0 0 0 0 0 0 0 0 0 0 0 0 0 0 0 127 0" result="hardAlpha"/>
<feOffset dy="4"/>
<feGaussianBlur stdDeviation="20"/>
<feComposite in2="hardAlpha" operator="arithmetic" k2="-1" k3="1"/>
<feColorMatrix type="matrix" values="0 0 0 0 0 0 0 0 0 0 0 0 0 0 0 0 0 0 1 0"/>
<feBlend mode="normal" in2="shape" result="effect2_innerShadow_6_237"/>
</filter>
<filter id="filter1_di_6_237" x="355.271" y="22.4225" width="265.911" height="265.911" filterUnits="userSpaceOnUse" color-interpolation-filters="sRGB">
<feFlood flood-opacity="0" result="BackgroundImageFix"/>
<feColorMatrix in="SourceAlpha" type="matrix" values="0 0 0 0 0 0 0 0 0 0 0 0 0 0 0 0 0 0 127 0" result="hardAlpha"/>
<feOffset dy="25"/>
<feGaussianBlur stdDeviation="18"/>
<feComposite in2="hardAlpha" operator="out"/>
<feColorMatrix type="matrix" values="0 0 0 0 0 0 0 0 0 0 0 0 0 0 0 0 0 0 0.1 0"/>
<feBlend mode="normal" in2="BackgroundImageFix" result="effect1_dropShadow_6_237"/>
<feBlend mode="normal" in="SourceGraphic" in2="effect1_dropShadow_6_237" result="shape"/>
<feColorMatrix in="SourceAlpha" type="matrix" values="0 0 0 0 0 0 0 0 0 0 0 0 0 0 0 0 0 0 127 0" result="hardAlpha"/>
<feOffset dy="4"/>
<feGaussianBlur stdDeviation="20"/>
<feComposite in2="hardAlpha" operator="arithmetic" k2="-1" k3="1"/>
<feColorMatrix type="matrix" values="0 0 0 0 0 0 0 0 0 0 0 0 0 0 0 0 0 0 1 0"/>
<feBlend mode="normal" in2="shape" result="effect2_innerShadow_6_237"/>
</filter>
<filter id="filter2_di_6_237" x="710.271" y="22.4225" width="265.911" height="265.911" filterUnits="userSpaceOnUse" color-interpolation-filters="sRGB">
<feFlood flood-opacity="0" result="BackgroundImageFix"/>
<feColorMatrix in="SourceAlpha" type="matrix" values="0 0 0 0 0 0 0 0 0 0 0 0 0 0 0 0 0 0 127 0" result="hardAlpha"/>
<feOffset dy="25"/>
<feGaussianBlur stdDeviation="18"/>
<feComposite in2="hardAlpha" operator="out"/>
<feColorMatrix type="matrix" values="0 0 0 0 0 0 0 0 0 0 0 0 0 0 0 0 0 0 0.1 0"/>
<feBlend mode="normal" in2="BackgroundImageFix" result="effect1_dropShadow_6_237"/>
<feBlend mode="normal" in="SourceGraphic" in2="effect1_dropShadow_6_237" result="shape"/>
<feColorMatrix in="SourceAlpha" type="matrix" values="0 0 0 0 0 0 0 0 0 0 0 0 0 0 0 0 0 0 127 0" result="hardAlpha"/>
<feOffset dy="4"/>
<feGaussianBlur stdDeviation="20"/>
<feComposite in2="hardAlpha" operator="arithmetic" k2="-1" k3="1"/>
<feColorMatrix type="matrix" values="0 0 0 0 0 0 0 0 0 0 0 0 0 0 0 0 0 0 1 0"/>
<feBlend mode="normal" in2="shape" result="effect2_innerShadow_6_237"/>
</filter>
<filter id="filter3_di_6_237" x="181.826" y="193.97" width="265.911" height="265.911" filterUnits="userSpaceOnUse" color-interpolation-filters="sRGB">
<feFlood flood-opacity="0" result="BackgroundImageFix"/>
<feColorMatrix in="SourceAlpha" type="matrix" values="0 0 0 0 0 0 0 0 0 0 0 0 0 0 0 0 0 0 127 0" result="hardAlpha"/>
<feOffset dy="25"/>
<feGaussianBlur stdDeviation="18"/>
<feComposite in2="hardAlpha" operator="out"/>
<feColorMatrix type="matrix" values="0 0 0 0 0 0 0 0 0 0 0 0 0 0 0 0 0 0 0.1 0"/>
<feBlend mode="normal" in2="BackgroundImageFix" result="effect1_dropShadow_6_237"/>
<feBlend mode="normal" in="SourceGraphic" in2="effect1_dropShadow_6_237" result="shape"/>
<feColorMatrix in="SourceAlpha" type="matrix" values="0 0 0 0 0 0 0 0 0 0 0 0 0 0 0 0 0 0 127 0" result="hardAlpha"/>
<feOffset dy="4"/>
<feGaussianBlur stdDeviation="20"/>
<feComposite in2="hardAlpha" operator="arithmetic" k2="-1" k3="1"/>
<feColorMatrix type="matrix" values="0 0 0 0 0 0 0 0 0 0 0 0 0 0 0 0 0 0 1 0"/>
<feBlend mode="normal" in2="shape" result="effect2_innerShadow_6_237"/>
</filter>
<filter id="filter4_di_6_237" x="536.826" y="193.97" width="265.911" height="265.911" filterUnits="userSpaceOnUse" color-interpolation-filters="sRGB">
<feFlood flood-opacity="0" result="BackgroundImageFix"/>
<feColorMatrix in="SourceAlpha" type="matrix" values="0 0 0 0 0 0 0 0 0 0 0 0 0 0 0 0 0 0 127 0" result="hardAlpha"/>
<feOffset dy="25"/>
<feGaussianBlur stdDeviation="18"/>
<feComposite in2="hardAlpha" operator="out"/>
<feColorMatrix type="matrix" values="0 0 0 0 0 0 0 0 0 0 0 0 0 0 0 0 0 0 0.1 0"/>
<feBlend mode="normal" in2="BackgroundImageFix" result="effect1_dropShadow_6_237"/>
<feBlend mode="normal" in="SourceGraphic" in2="effect1_dropShadow_6_237" result="shape"/>
<feColorMatrix in="SourceAlpha" type="matrix" values="0 0 0 0 0 0 0 0 0 0 0 0 0 0 0 0 0 0 127 0" result="hardAlpha"/>
<feOffset dy="4"/>
<feGaussianBlur stdDeviation="20"/>
<feComposite in2="hardAlpha" operator="arithmetic" k2="-1" k3="1"/>
<feColorMatrix type="matrix" values="0 0 0 0 0 0 0 0 0 0 0 0 0 0 0 0 0 0 1 0"/>
<feBlend mode="normal" in2="shape" result="effect2_innerShadow_6_237"/>
</filter>
<filter id="filter5_di_6_237" x="891.826" y="193.97" width="265.911" height="265.911" filterUnits="userSpaceOnUse" color-interpolation-filters="sRGB">
<feFlood flood-opacity="0" result="BackgroundImageFix"/>
<feColorMatrix in="SourceAlpha" type="matrix" values="0 0 0 0 0 0 0 0 0 0 0 0 0 0 0 0 0 0 127 0" result="hardAlpha"/>
<feOffset dy="25"/>
<feGaussianBlur stdDeviation="18"/>
<feComposite in2="hardAlpha" operator="out"/>
<feColorMatrix type="matrix" values="0 0 0 0 0 0 0 0 0 0 0 0 0 0 0 0 0 0 0.1 0"/>
<feBlend mode="normal" in2="BackgroundImageFix" result="effect1_dropShadow_6_237"/>
<feBlend mode="normal" in="SourceGraphic" in2="effect1_dropShadow_6_237" result="shape"/>
<feColorMatrix in="SourceAlpha" type="matrix" values="0 0 0 0 0 0 0 0 0 0 0 0 0 0 0 0 0 0 127 0" result="hardAlpha"/>
<feOffset dy="4"/>
<feGaussianBlur stdDeviation="20"/>
<feComposite in2="hardAlpha" operator="arithmetic" k2="-1" k3="1"/>
<feColorMatrix type="matrix" values="0 0 0 0 0 0 0 0 0 0 0 0 0 0 0 0 0 0 1 0"/>
<feBlend mode="normal" in2="shape" result="effect2_innerShadow_6_237"/>
</filter>
<radialGradient id="paint0_radial_6_237" cx="0" cy="0" r="1" gradientUnits="userSpaceOnUse" gradientTransform="translate(134.261 55.9078) rotate(34.2135) scale(187.011)">
<stop stop-color="#C0C0C0"/>
<stop offset="1" stop-color="#161616"/>
</radialGradient>
<radialGradient id="paint1_radial_6_237" cx="0" cy="0" r="1" gradientUnits="userSpaceOnUse" gradientTransform="translate(489.261 55.9078) rotate(34.2135) scale(187.011)">
<stop stop-color="#C0C0C0"/>
<stop offset="1" stop-color="#161616"/>
</radialGradient>
<radialGradient id="paint2_radial_6_237" cx="0" cy="0" r="1" gradientUnits="userSpaceOnUse" gradientTransform="translate(844.261 55.9078) rotate(34.2135) scale(187.011)">
<stop stop-color="#C0C0C0"/>
<stop offset="1" stop-color="#161616"/>
</radialGradient>
<radialGradient id="paint3_radial_6_237" cx="0" cy="0" r="1" gradientUnits="userSpaceOnUse" gradientTransform="translate(315.815 227.456) rotate(34.2135) scale(187.011)">
<stop stop-color="#C0C0C0"/>
<stop offset="1" stop-color="#161616"/>
</radialGradient>
<radialGradient id="paint4_radial_6_237" cx="0" cy="0" r="1" gradientUnits="userSpaceOnUse" gradientTransform="translate(670.815 227.456) rotate(34.2135) scale(187.011)">
<stop stop-color="#C0C0C0"/>
<stop offset="1" stop-color="#161616"/>
</radialGradient>
<radialGradient id="paint5_radial_6_237" cx="0" cy="0" r="1" gradientUnits="userSpaceOnUse" gradientTransform="translate(1025.82 227.456) rotate(34.2135) scale(187.011)">
<stop stop-color="#C0C0C0"/>
<stop offset="1" stop-color="#161616"/>
</radialGradient>
<radialGradient id="paint6_radial_6_237" cx="0" cy="0" r="1" gradientUnits="userSpaceOnUse" gradientTransform="translate(134.548 35.2364) rotate(34.2135) scale(238.921)">
<stop stop-color="#C0C0C0"/>
<stop offset="1" stop-color="#161616"/>
</radialGradient>
<radialGradient id="paint7_radial_6_237" cx="0" cy="0" r="1" gradientUnits="userSpaceOnUse" gradientTransform="translate(489.548 35.2364) rotate(34.2135) scale(238.921)">
<stop stop-color="#C0C0C0"/>
<stop offset="1" stop-color="#161616"/>
</radialGradient>
<radialGradient id="paint8_radial_6_237" cx="0" cy="0" r="1" gradientUnits="userSpaceOnUse" gradientTransform="translate(844.548 35.2364) rotate(34.2135) scale(238.921)">
<stop stop-color="#C0C0C0"/>
<stop offset="1" stop-color="#161616"/>
</radialGradient>
<radialGradient id="paint9_radial_6_237" cx="0" cy="0" r="1" gradientUnits="userSpaceOnUse" gradientTransform="translate(316.103 206.784) rotate(34.2135) scale(238.921)">
<stop stop-color="#C0C0C0"/>
<stop offset="1" stop-color="#161616"/>
</radialGradient>
<radialGradient id="paint10_radial_6_237" cx="0" cy="0" r="1" gradientUnits="userSpaceOnUse" gradientTransform="translate(671.103 206.784) rotate(34.2135) scale(238.921)">
<stop stop-color="#C0C0C0"/>
<stop offset="1" stop-color="#161616"/>
</radialGradient>
<radialGradient id="paint11_radial_6_237" cx="0" cy="0" r="1" gradientUnits="userSpaceOnUse" gradientTransform="translate(1026.1 206.784) rotate(34.2135) scale(238.921)">
<stop stop-color="#C0C0C0"/>
<stop offset="1" stop-color="#161616"/>
</radialGradient>
<linearGradient id="paint12_linear_6_237" x1="209.478" y1="200.034" x2="201.58" y2="221.931" gradientUnits="userSpaceOnUse">
<stop stop-color="#194BFD"/>
<stop offset="1" stop-color="#AD13FB"/>
</linearGradient>
<linearGradient id="paint13_linear_6_237" x1="560.212" y1="200.034" x2="552.314" y2="221.931" gradientUnits="userSpaceOnUse">
<stop stop-color="#194BFD"/>
<stop offset="1" stop-color="#AD13FB"/>
</linearGradient>
<linearGradient id="paint14_linear_6_237" x1="918.243" y1="200.034" x2="910.345" y2="221.931" gradientUnits="userSpaceOnUse">
<stop stop-color="#194BFD"/>
<stop offset="1" stop-color="#AD13FB"/>
</linearGradient>
<linearGradient id="paint15_linear_6_237" x1="386.353" y1="230.919" x2="378.455" y2="209.022" gradientUnits="userSpaceOnUse">
<stop stop-color="#194BFD"/>
<stop offset="1" stop-color="#AD13FB"/>
</linearGradient>
<linearGradient id="paint16_linear_6_237" x1="737.087" y1="230.919" x2="729.189" y2="209.022" gradientUnits="userSpaceOnUse">
<stop stop-color="#194BFD"/>
<stop offset="1" stop-color="#AD13FB"/>
</linearGradient>
</defs>
</svg>
