<?xml version="1.0" encoding="UTF-8"?>
<svg version="1.1" xmlns="http://www.w3.org/2000/svg" width="1200" height="1200">
<path d="M0 0 C396 0 792 0 1200 0 C1200 396 1200 792 1200 1200 C804 1200 408 1200 0 1200 C0 804 0 408 0 0 Z " fill="#1060D3" transform="translate(0,0)"/>
<path d="M0 0 C4.32400565 3.01697667 6.79246017 7.38349419 8.71875 12.19921875 C9.19342779 18.13269116 7.84607316 22.79449632 5.96875 28.32421875 C5.41112118 30.02593122 4.8538299 31.72775434 4.296875 33.4296875 C4.02423828 34.25130371 3.75160156 35.07291992 3.47070312 35.91943359 C2.51596143 38.81403681 1.61085696 41.72225067 0.71875 44.63671875 C0.25275391 46.15265625 0.25275391 46.15265625 -0.22265625 47.69921875 C-1.05355564 50.44639903 -1.8723285 53.1962278 -2.68359375 55.94921875 C-5.27811247 64.73015268 -7.98699337 73.39684349 -11.13671875 81.99609375 C-12.62667563 86.16593895 -13.91563422 90.38279929 -15.1953125 94.62109375 C-16.46443831 98.80281763 -17.77533993 102.9703202 -19.09375 107.13671875 C-19.34560059 107.93263428 -19.59745117 108.7285498 -19.85693359 109.54858398 C-20.38676681 111.22176757 -20.91688512 112.89486091 -21.44726562 114.56787109 C-22.01681927 116.36489953 -22.58580446 118.16210821 -23.15429688 119.95947266 C-28.98348957 138.38775745 -28.98348957 138.38775745 -31.96875 147.26171875 C-33.7932768 152.69383262 -35.51750482 158.14755111 -37.1875 163.62890625 C-40.68606732 175.04922957 -44.33436569 186.4157188 -48.13671875 197.73828125 C-49.55148924 202.01639269 -50.87432574 206.31872945 -52.1875 210.62890625 C-55.68606732 222.04922957 -59.33436569 233.4157188 -63.13671875 244.73828125 C-64.55446938 249.02540432 -65.8800101 253.33679692 -67.1953125 257.65625 C-69.23399418 264.30763231 -71.34493986 270.93638226 -73.44726562 277.56787109 C-74.01681927 279.36489953 -74.58580446 281.16210821 -75.15429688 282.95947266 C-80.98348957 301.38775745 -80.98348957 301.38775745 -83.96875 310.26171875 C-85.7932768 315.69383262 -87.51750482 321.14755111 -89.1875 326.62890625 C-92.66393638 337.97698786 -96.25305693 349.28544649 -100.10546875 360.51171875 C-101.6517002 365.36102935 -102.94202001 370.28870879 -104.28125 375.19921875 C-23.10125 375.19921875 58.07875 375.19921875 141.71875 375.19921875 C133.86368361 387.5428945 133.86368361 387.5428945 130.01953125 393.15234375 C129.19461728 394.36064692 128.36974876 395.56898113 127.54492188 396.77734375 C126.28205968 398.6230086 125.01832524 400.46806869 123.75366211 402.3125 C122.50667502 404.1325695 121.26295973 405.95484195 120.01953125 407.77734375 C119.28903564 408.8437207 118.55854004 409.91009766 117.8059082 411.00878906 C115.62606407 414.34089845 113.66020815 417.72425233 111.71875 421.19921875 C115.32461092 418.80593088 118.92848375 416.40966197 122.53125 414.01171875 C123.11584991 413.62263336 123.70044983 413.23354797 124.30276489 412.83267212 C132.40130379 407.43971615 140.47961857 402.01762185 148.5390625 396.56640625 C149.39342392 395.98861923 150.24778534 395.41083221 151.1280365 394.8155365 C151.99739334 394.22760818 152.86675018 393.63967987 153.76245117 393.03393555 C170.34746319 381.81837199 186.98366334 370.68973999 203.71875 359.69921875 C218.99134905 349.6684885 234.19821334 339.54589245 249.34375 329.32421875 C250.25543945 328.70925537 251.16712891 328.09429199 252.10644531 327.46069336 C256.98939355 324.16554764 261.86659574 320.86221326 266.73550415 317.5463562 C268.5025752 316.34605741 270.27500408 315.15427323 272.04956055 313.96508789 C272.94715088 313.35528076 273.84474121 312.74547363 274.76953125 312.1171875 C275.49309814 311.63016357 276.21666504 311.14313965 276.9621582 310.64135742 C279.87658398 308.24865234 281.17962584 305.61205927 282.71875 302.19921875 C283.04875 301.53921875 283.37875 300.87921875 283.71875 300.19921875 C284.74537583 288.79312107 284.74537583 288.79312107 280.71557617 278.43408203 C272.01624877 268.69772758 258.18668565 261.81801816 247.3203125 254.71142578 C231.20107513 244.1656292 215.16773685 233.50054883 199.21875 222.69921875 C184.78645479 212.92759111 170.28764766 203.26596897 155.71875 193.69921875 C138.90905001 182.66043472 122.19380112 171.48951436 105.54272461 160.21289062 C103.80327631 159.03507701 102.06377553 157.8573409 100.32421875 156.6796875 C99.49119736 156.11571259 98.65817596 155.55173767 97.7999115 154.97067261 C92.83268818 151.61288345 87.84557929 148.28818102 82.83203125 145 C82.25329254 144.61937912 81.67455383 144.23875824 81.07827759 143.84660339 C78.52964325 142.17094075 75.97675668 140.50293615 73.41308594 138.8503418 C67.87734855 135.22008235 64.40323773 131.72595035 60.71875 126.19921875 C60.04158116 119.61221274 59.5607989 112.65652957 63.71875 107.19921875 C68.4398742 102.48793023 72.06020531 99.09415325 78.96875 98.94921875 C79.69578125 98.9234375 80.4228125 98.89765625 81.171875 98.87109375 C88.32494406 99.79265479 94.2954329 104.33456135 100.1484375 108.23828125 C101.0468486 108.83123993 101.9452597 109.42419861 102.87089539 110.03512573 C105.78234663 111.95910322 108.68818464 113.89136632 111.59375 115.82421875 C113.61560816 117.16370717 115.63766322 118.50289842 117.65991211 119.84179688 C129.49950711 127.68930606 141.2926402 135.60036074 153.015625 143.62109375 C161.99753548 149.76483315 171.01263169 155.85953333 180.03125 161.94921875 C181.40713791 162.87831055 181.40713791 162.87831055 182.81082153 163.82617188 C197.61932327 173.81917768 212.5107715 183.68074864 227.44256592 193.48828125 C241.74264865 202.88383916 255.97399751 212.37672103 270.15625 221.94921875 C271.50456909 222.85885376 271.50456909 222.85885376 272.88012695 223.78686523 C278.50035796 227.58019697 284.11404041 231.3829896 289.71875 235.19921875 C290.72705872 235.88541794 290.72705872 235.88541794 291.7557373 236.58547974 C293.57265571 237.82432694 295.38663021 239.06732892 297.19921875 240.3125 C298.1843042 240.98837158 299.16938965 241.66424316 300.18432617 242.3605957 C313.33278785 251.89927839 321.97014473 267.31711048 324.71875 283.19921875 C326.76952517 300.42652355 322.40543263 318.04017261 311.6875 331.80859375 C302.06982867 342.98405692 289.86438805 350.56368607 277.62207031 358.53613281 C272.6895545 361.74930485 267.76859856 364.98007868 262.84765625 368.2109375 C261.83551056 368.87515717 260.82336487 369.53937683 259.7805481 370.22372437 C249.53256758 376.95944256 239.3709265 383.82030761 229.21875 390.69921875 C212.37667595 402.10774998 195.43098397 413.35022352 178.40625 424.484375 C170.52797355 429.64506419 162.70793223 434.84260598 155.0811615 440.36915588 C147.55994592 445.79776282 139.82696598 450.91775732 132.10986328 456.06201172 C129.42793794 457.85144943 126.75105755 459.64827726 124.07421875 461.4453125 C122.36748739 462.58508461 120.66046723 463.72442441 118.953125 464.86328125 C118.15428894 465.40062897 117.35545288 465.93797668 116.53240967 466.49160767 C115.79693909 466.9798703 115.06146851 467.46813293 114.30371094 467.97119141 C113.33446686 468.61877914 113.33446686 468.61877914 112.34564209 469.27944946 C110.71875 470.19921875 110.71875 470.19921875 108.71875 470.19921875 C111.75946469 476.24864061 115.43793132 481.71870969 119.41577148 487.17773438 C124.13112678 493.68690919 128.55399632 500.38555992 132.98413086 507.09082031 C133.55526611 507.95416992 134.12640137 508.81751953 134.71484375 509.70703125 C135.22200928 510.4767627 135.7291748 511.24649414 136.25170898 512.03955078 C137.25295768 513.51351416 138.30805909 514.95194539 139.40649414 516.35498047 C140.71875 518.19921875 140.71875 518.19921875 140.71875 520.19921875 C44.35875 520.52921875 -52.00125 520.85921875 -151.28125 521.19921875 C-152.93125 526.47921875 -154.58125 531.75921875 -156.28125 537.19921875 C-159.84850299 548.5131546 -163.43072266 559.82025679 -167.23046875 571.05859375 C-167.87980902 572.99937286 -168.51122846 574.94637883 -169.11328125 576.90234375 C-171.55910267 584.80221615 -175.13830011 590.34202437 -182.53125 594.44921875 C-188.84204539 596.17034477 -194.65026183 595.8771612 -200.421875 592.6796875 C-204.48628922 589.44352576 -206.98590301 584.78991273 -209.28125 580.19921875 C-209.67433521 574.06309193 -208.69969431 569.48930211 -206.59375 563.76171875 C-206.03642763 562.17409958 -205.4818013 560.58553176 -204.9296875 558.99609375 C-204.51154785 557.79823242 -204.51154785 557.79823242 -204.08496094 556.57617188 C-202.8488196 552.92031767 -201.77927167 549.22161948 -200.71875 545.51171875 C-194.98152862 525.59977599 -194.98152862 525.59977599 -192.28125 520.19921875 C-241.45125 520.19921875 -290.62125 520.19921875 -341.28125 520.19921875 C-338.13560332 514.53705473 -335.10226046 509.25651353 -331.40625 504.01171875 C-330.45267835 502.63963322 -329.49958228 501.26721709 -328.546875 499.89453125 C-328.03189453 499.15493164 -327.51691406 498.41533203 -326.98632812 497.65332031 C-323.69107921 492.91050215 -320.42169195 488.15008773 -317.15625 483.38671875 C-316.49254395 482.42548096 -315.82883789 481.46424316 -315.14501953 480.47387695 C-314.52739746 479.57241943 -313.90977539 478.67096191 -313.2734375 477.7421875 C-312.44368408 476.53598755 -312.44368408 476.53598755 -311.59716797 475.30541992 C-310.13287732 473.14491502 -310.13287732 473.14491502 -309.28125 470.19921875 C-309.9304541 469.98523438 -310.5796582 469.77125 -311.24853516 469.55078125 C-315.43267511 467.68607357 -319.0321649 465.15684192 -322.8046875 462.57421875 C-323.64540802 462.00445313 -324.48612854 461.4346875 -325.35232544 460.84765625 C-327.17026203 459.6149852 -328.98676965 458.38020463 -330.80200195 457.14355469 C-335.68190524 453.81932667 -340.57225594 450.5105171 -345.4609375 447.19921875 C-346.95660248 446.18516968 -346.95660248 446.18516968 -348.48248291 445.15063477 C-357.88127406 438.78192962 -367.32583797 432.48341565 -376.78125 426.19921875 C-389.4812074 417.75445266 -402.14129347 409.25319808 -414.77450562 400.70892334 C-415.66360626 400.10759583 -416.55270691 399.50626831 -417.46875 398.88671875 C-418.35213043 398.28925842 -419.23551086 397.6917981 -420.1456604 397.07623291 C-436.15191099 386.25654964 -452.25818086 375.59338435 -468.41674805 365.00268555 C-476.38487405 359.77671099 -484.33699169 354.53105414 -492.203125 349.15234375 C-492.84170944 348.71779877 -493.48029388 348.28325378 -494.13822937 347.83554077 C-510.26838734 336.73220853 -521.10439118 322.75523362 -524.94726562 303.29248047 C-527.60198655 286.65390066 -523.79094384 270.13798751 -514.28125 256.19921875 C-505.83751808 245.60276626 -496.0587651 238.45138171 -484.71875 231.19921875 C-483.00148714 230.08127104 -481.28561872 228.96117885 -479.57104492 227.83911133 C-476.8829587 226.08022635 -474.19411561 224.32265188 -471.50099182 222.57148743 C-462.51058649 216.72294393 -453.6314999 210.71483566 -444.7567749 204.69281006 C-426.98763691 192.64159504 -409.10265965 180.77205833 -391.14575195 169.00268555 C-382.83684944 163.55278936 -374.56270984 158.06565936 -366.38969421 152.41369629 C-345.12148963 137.70589354 -323.62634382 123.29755748 -302.03125 109.07421875 C-301.01691895 108.40116699 -300.00258789 107.72811523 -298.95751953 107.03466797 C-285.11254702 97.97507857 -285.11254702 97.97507857 -276.28125 99.19921875 C-269.79742026 101.01924113 -266.10200439 104.84584536 -262.28125 110.19921875 C-261.20951566 113.41442177 -260.97463415 116.00356166 -260.84375 119.38671875 C-260.78316406 120.47339844 -260.72257812 121.56007813 -260.66015625 122.6796875 C-261.78118976 129.03221074 -266.0895329 133.56824573 -271.21142578 137.30932617 C-272.70704584 138.3218442 -274.21271326 139.31963288 -275.7265625 140.3046875 C-276.55219696 140.85776077 -277.37783142 141.41083405 -278.22848511 141.98066711 C-280.94579319 143.7960145 -283.67572867 145.59132044 -286.40625 147.38671875 C-288.3367008 148.67072816 -290.26637459 149.95590644 -292.1953125 151.2421875 C-298.21138358 155.24701911 -304.24516191 159.22464696 -310.28125 163.19921875 C-312.15993746 164.43815197 -314.03852077 165.67724315 -315.91699219 166.91650391 C-323.20477572 171.72303127 -330.4946739 176.52630694 -337.79150391 181.3190918 C-351.41726347 190.27454573 -364.94774198 199.3645357 -378.44943237 208.50567627 C-392.18043776 217.79875612 -405.98596701 226.97138103 -419.84375 236.07421875 C-433.52088886 245.06042249 -447.16082076 254.09643761 -460.71875 263.26171875 C-461.43652618 263.74598328 -462.15430237 264.2302478 -462.89382935 264.72918701 C-464.89841519 266.08252368 -466.90082471 267.43900798 -468.90234375 268.796875 C-469.48039764 269.18715378 -470.05845154 269.57743256 -470.65402222 269.97953796 C-479.56122643 275.95667106 -479.56122643 275.95667106 -484.28125 285.19921875 C-485.03817955 292.19508273 -485.75310882 300.20320647 -481.76565552 306.36526489 C-476.73761458 312.5773107 -468.93284646 316.89302296 -462.2890625 321.20703125 C-461.44274261 321.76151947 -460.59642273 322.31600769 -459.72445679 322.88729858 C-457.90396235 324.07993951 -456.08245064 325.27102885 -454.26000977 326.46069336 C-449.31549848 329.68949434 -444.37996095 332.93193297 -439.4453125 336.17578125 C-438.43007507 336.84309265 -437.41483765 337.51040405 -436.36883545 338.19793701 C-426.11608914 344.94785695 -415.9437711 351.8145163 -405.78125 358.69921875 C-388.85155873 370.16673917 -371.81685507 381.46613249 -354.70507812 392.66015625 C-346.88036227 397.78679168 -339.12036211 402.92671432 -331.60693359 408.50268555 C-327.87161519 411.22751523 -323.99253381 413.71658512 -320.09375 416.19921875 C-319.33255859 416.68777344 -318.57136719 417.17632813 -317.78710938 417.6796875 C-315.95371865 418.85582495 -314.11777277 420.02797797 -312.28125 421.19921875 C-313.55773514 418.55021197 -314.93970382 416.08784067 -316.57421875 413.64453125 C-317.26209473 412.61392578 -317.26209473 412.61392578 -317.96386719 411.5625 C-318.46047852 410.82386719 -318.95708984 410.08523438 -319.46875 409.32421875 C-319.98469727 408.55207031 -320.50064453 407.77992188 -321.03222656 406.984375 C-324.12704705 402.36502142 -327.25694295 397.77109066 -330.41015625 393.19140625 C-331.09505127 392.1947998 -331.77994629 391.19819336 -332.4855957 390.17138672 C-333.83794473 388.20653447 -335.19448682 386.2445609 -336.55541992 384.28564453 C-337.47931519 382.94348877 -337.47931519 382.94348877 -338.421875 381.57421875 C-338.97391602 380.77757812 -339.52595703 379.9809375 -340.09472656 379.16015625 C-341.28125 377.19921875 -341.28125 377.19921875 -341.28125 375.19921875 C-276.93125 374.86921875 -212.58125 374.53921875 -146.28125 374.19921875 C-139.11502462 352.96957763 -139.11502462 352.96957763 -132.62109375 331.65625 C-130.85061121 325.6143535 -128.79129316 319.66456069 -126.78125 313.69921875 C-123.59089922 304.22662195 -120.59635574 294.73555283 -117.84179688 285.12890625 C-115.40875818 276.75314935 -112.77408058 268.45459246 -109.78125 260.26171875 C-107.41443772 253.74558868 -105.45439946 247.15590007 -103.53125 240.5 C-100.87975069 231.32954107 -98.05720611 222.22964861 -94.78125 213.26171875 C-92.41443772 206.74558868 -90.45439946 200.15590007 -88.53125 193.5 C-85.87975069 184.32954107 -83.05720611 175.22964861 -79.78125 166.26171875 C-78.03448792 161.45140472 -76.49164009 156.62015341 -75.09375 151.69921875 C-72.74480852 143.44758307 -70.01998879 135.32765103 -67.28125 127.19921875 C-64.65482862 119.40083151 -62.03388567 111.61562411 -59.78125 103.69921875 C-57.33542008 95.10387361 -54.45615807 86.65798907 -51.60498047 78.19091797 C-48.78163381 69.79890502 -46.11870282 61.39954756 -43.6953125 52.8828125 C-41.32049491 44.80880435 -38.53804493 36.85156162 -35.84570312 28.87890625 C-35.22211914 27.02845703 -35.22211914 27.02845703 -34.5859375 25.140625 C-34.18568359 23.95428467 -33.78542969 22.76794434 -33.37304688 21.5456543 C-32.40144611 18.56762843 -31.52476056 15.58210823 -30.6796875 12.56640625 C-28.69879533 5.86105175 -24.88557729 1.74252381 -18.90625 -1.80078125 C-11.92546377 -3.72651538 -6.38266642 -3.60924589 0 0 Z " fill="#F3E7E8" transform="translate(700.28125,303.80078125)"/>
<path d="M0 0 C3.125 0.375 3.125 0.375 5.328125 1.96484375 C7.80818374 5.29135732 7.40298691 7.22689865 7 11.3125 C6.91020874 12.29198608 6.91020874 12.29198608 6.81860352 13.29125977 C6.1934672 19.68866841 5.22475383 26.04340757 4.125 32.375 C5.5835872 31.72974023 7.04186137 31.0837728 8.5 30.4375 C9.71816406 29.89802734 9.71816406 29.89802734 10.9609375 29.34765625 C12.36183785 28.7180097 13.75125284 28.06187358 15.125 27.375 C18.20668263 26.89670348 21.05109714 26.81659204 24.125 27.375 C28.59865389 31.37273326 30.82681351 35.71970648 31.3163147 41.72021484 C31.4058975 44.56534628 31.42837522 47.40345273 31.42578125 50.25 C31.43006638 51.29269043 31.4343515 52.33538086 31.43876648 53.40966797 C31.44449489 55.60839107 31.44502105 57.80713311 31.44067383 60.00585938 C31.43751073 63.36361041 31.4610032 66.72048256 31.48632812 70.078125 C31.488601 72.21874889 31.48930467 74.35937515 31.48828125 76.5 C31.497491 77.50015137 31.50670074 78.50030273 31.51618958 79.53076172 C31.48109314 84.83387014 31.30091722 88.88811767 28.125 93.375 C24.6875 94.5 24.6875 94.5 21.125 94.375 C18.92675781 93.03417969 18.92675781 93.03417969 17.125 90.375 C16.56436359 86.81580523 16.66070148 83.29817728 16.734375 79.703125 C16.74003479 78.66557068 16.74569458 77.62801636 16.75152588 76.559021 C16.77390509 73.24721008 16.82410581 69.93648356 16.875 66.625 C16.89506294 64.37892188 16.91331406 62.13282679 16.9296875 59.88671875 C16.97377482 54.38244291 17.04070259 48.87879893 17.125 43.375 C9.4083768 45.39369105 9.4083768 45.39369105 4.07910156 51.06542969 C0.60245382 58.16457478 0.14733421 65.26340215 -0.4375 73.0625 C-0.63596911 75.62979392 -0.84522505 78.19628176 -1.06640625 80.76171875 C-1.15092041 81.88795654 -1.23543457 83.01419434 -1.32250977 84.17456055 C-1.96764421 87.91166504 -3.12204119 91.62204119 -5.875 94.375 C-11.7160596 94.74586093 -11.7160596 94.74586093 -13.875 94.375 C-16.28887941 90.75418089 -16.2583479 88.0702838 -16.25 83.875 C-16.24983887 83.1010791 -16.24967773 82.3271582 -16.24951172 81.52978516 C-16.05047153 70.70828452 -14.07087663 60.05768544 -12.35351562 49.39599609 C-11.05642297 41.20710602 -10.06931517 32.99502635 -9.41796875 24.73046875 C-9.33756348 23.74151611 -9.2571582 22.75256348 -9.17431641 21.73364258 C-9.02028238 19.79297271 -8.87742162 17.85137258 -8.74755859 15.90893555 C-8.25518295 9.65463294 -7.51105117 0.97970233 0 0 Z " fill="#1462D3" transform="translate(658.875,701.625)"/>
<path d="M0 0 C0.2119505 11.06852588 -0.03233036 21.86881805 -1.28417969 32.87304688 C-2.06615611 39.94753396 -2.21220791 46.87924568 -2 54 C0.1889874 52.60645601 2.37618327 51.21022333 4.5625 49.8125 C5.20566162 49.40338379 5.84882324 48.99426758 6.51147461 48.57275391 C9.81016361 46.46115808 12.98332509 44.30122488 16.0625 41.875 C19 40 19 40 21.75 40 C24.19978728 41.08879435 25.54319857 41.73386445 27 44 C27 47.33640123 26.20230904 48.75853437 24.0625 51.3125 C20.64763101 54.49568171 16.84524087 57.24430971 13.109375 60.03515625 C10.93264865 61.82122681 10.93264865 61.82122681 10.03515625 64.02734375 C9.98649438 66.75781552 10.82847784 67.52397644 12.6875 69.5 C13.32300781 70.18320312 13.95851563 70.86640625 14.61328125 71.5703125 C18.04537997 75.06420023 21.49710604 78.53861114 24.9987793 81.96289062 C28.60417323 85.50535614 29.90527575 86.80647444 30.3125 91.9375 C30.25795517 95.69427536 30.25795517 95.69427536 28.3125 98 C25.55078492 99.19425517 23.99162032 99.34366183 21 99 C14.47499695 94.52756414 9.17805383 88.15414106 3.984375 82.2421875 C1.7492464 79.71666818 -0.57759186 77.34426594 -3 75 C-3.03738281 75.85722656 -3.07476562 76.71445312 -3.11328125 77.59765625 C-3.79491501 89.45273752 -3.79491501 89.45273752 -7 95 C-10.4352048 97.29013653 -11.985331 97.17842973 -16 97 C-22.7859465 84.8756861 -18.40128167 66.70082979 -17.40087891 53.32421875 C-17.12620041 49.64109617 -16.86135483 45.95736068 -16.59765625 42.2734375 C-15.14258976 22.24895111 -15.14258976 22.24895111 -14.0546875 12.5859375 C-13.85721924 10.81935791 -13.85721924 10.81935791 -13.65576172 9.01708984 C-11.85990801 0.75455813 -8.11621534 -1.53136138 0 0 Z " fill="#1563D3" transform="translate(442,692)"/>
<path d="M0 0 C0.495 0.495 0.495 0.495 1 1 C0.93569089 3.14850879 0.79864836 5.29505468 0.625 7.4375 C0.48964844 9.19900391 0.48964844 9.19900391 0.3515625 10.99609375 C0 14 0 14 -1 16 C-1.07033769 17.87379605 -1.0843022 19.75001102 -1.0625 21.625 C-1.05347656 22.62789062 -1.04445313 23.63078125 -1.03515625 24.6640625 C-1.02355469 25.43492187 -1.01195312 26.20578125 -1 27 C0.27617188 27.06058594 1.55234375 27.12117187 2.8671875 27.18359375 C4.53647016 27.26799568 6.20574037 27.35264386 7.875 27.4375 C8.71675781 27.47681641 9.55851563 27.51613281 10.42578125 27.55664062 C11.63427734 27.61948242 11.63427734 27.61948242 12.8671875 27.68359375 C13.98262939 27.73858032 13.98262939 27.73858032 15.12060547 27.79467773 C17 28 17 28 19 29 C19.48453608 35.29896907 19.48453608 35.29896907 17.53125 38.125 C13.9711479 40.76211267 10.5707177 41.14094361 6.25 41.75 C5.06083984 41.93755859 5.06083984 41.93755859 3.84765625 42.12890625 C1.9006661 42.43385652 -0.04942187 42.71891232 -2 43 C-3.71936233 47.5840749 -4.48040325 51.97480597 -4.9296875 56.8203125 C-5.08686492 58.3411846 -5.24442965 59.86201671 -5.40234375 61.3828125 C-5.63992601 63.74497535 -5.8733169 66.1073843 -6.09912109 68.47070312 C-8.30602784 91.2770019 -8.30602784 91.2770019 -13.40576172 97.79736328 C-16.11165047 99.83858962 -18.75463621 99.29503307 -22 99 C-24 97 -24 97 -24.3125 93.375 C-24.21228903 88.48007943 -23.21235986 83.87693268 -22.21484375 79.09716797 C-20.09394722 68.21506798 -19.70423303 57.04520601 -19 46 C-20.12019531 46.04640625 -21.24039063 46.0928125 -22.39453125 46.140625 C-23.86716085 46.17814423 -25.33981927 46.21454423 -26.8125 46.25 C-27.55048828 46.28351562 -28.28847656 46.31703125 -29.04882812 46.3515625 C-34.49506382 46.4501369 -34.49506382 46.4501369 -37.015625 44.203125 C-38.53104834 40.81146323 -37.94566951 38.53049951 -37 35 C-34.81530869 32.17006265 -33.63287692 31.12487639 -30.08984375 30.42578125 C-29.04957031 30.38839844 -28.00929688 30.35101562 -26.9375 30.3125 C-23.63757818 30.16973453 -21.14457366 30.04819122 -18 29 C-16.99239171 26.28544393 -16.99239171 26.28544393 -16.375 23 C-16.12363281 21.82308594 -15.87226562 20.64617188 -15.61328125 19.43359375 C-15.11071577 16.61986727 -14.77163237 13.90767288 -14.5625 11.0625 C-14.17843285 6.7177404 -12.76580277 4.35248821 -10 1 C-6.74696956 -0.62651522 -3.60774398 -0.11453156 0 0 Z " fill="#1462D3" transform="translate(761,703)"/>
<path d="M0 0 C3.91104154 3.91104154 4.27242481 8.87730489 4.38012695 14.16601562 C4.35016837 27.43909527 2.52938481 42.53386074 -6.6640625 52.87109375 C-12.30524125 58.05252885 -17.85115554 59.45403986 -25.4140625 59.23828125 C-33.22889143 58.51818372 -37.66806859 56.06544538 -42.6875 50.03515625 C-46.24446229 44.51974746 -45.22234595 37.52059159 -45.24023438 31.21044922 C-45.24993637 29.13858834 -45.28098486 27.06772203 -45.3125 24.99609375 C-45.31765625 23.67996094 -45.3228125 22.36382813 -45.328125 21.0078125 C-45.3374707 19.80785645 -45.34681641 18.60790039 -45.35644531 17.37158203 C-44.88774162 12.93815874 -43.16598858 9.8410346 -40.8125 6.125 C-37.68990533 4.18683779 -34.60523028 4.7674045 -31 5 C-30 6 -30 6 -29.8671875 8.73046875 C-29.86976563 9.87128906 -29.87234375 11.01210938 -29.875 12.1875 C-29.87242187 13.31542969 -29.86984375 14.44335938 -29.8671875 15.60546875 C-29.99342528 18.83195783 -30.45227529 21.8231967 -31 25 C-31.47916732 31.99399995 -31.56109151 37.83657239 -28 44 C-25.2540274 45.3729863 -23.0410953 45.12412634 -20 45 C-18.515 44.505 -18.515 44.505 -17 44 C-15.83282784 41.71224401 -15.83282784 41.71224401 -15 39 C-14.72406006 38.18909912 -14.44812012 37.37819824 -14.16381836 36.54272461 C-11.76450128 28.42012471 -11.56565835 20.76430136 -11.56054688 12.34570312 C-11.54185547 11.32541016 -11.52316406 10.30511719 -11.50390625 9.25390625 C-11.50205322 8.33939697 -11.5002002 7.4248877 -11.49829102 6.48266602 C-10.21783336 0.10296298 -5.80387591 -0.6448751 0 0 Z " fill="#1562D3" transform="translate(579,731)"/>
<path d="M0 0 C3.14123703 2.11805402 4.88840293 4.01199562 6.8828125 7.26953125 C6.96338605 10.65362021 6.13130701 11.93228871 4.1328125 14.64453125 C1.8828125 16.26953125 1.8828125 16.26953125 -0.4921875 16.20703125 C-3.1171875 15.26953125 -3.1171875 15.26953125 -5.8046875 13.70703125 C-10.30105832 11.75577599 -14.28745325 12.01181816 -19.1171875 12.26953125 C-19.5879026 15.08208848 -19.5879026 15.08208848 -19.1171875 18.26953125 C-16.70306042 20.7142721 -16.70306042 20.7142721 -13.4921875 22.70703125 C-7.36597214 26.94832635 -2.13566859 31.24886763 0.8828125 38.26953125 C1.51587867 44.60019296 0.57258301 49.03243762 -3.1171875 54.26953125 C-7.49725275 59.06321041 -11.85326027 61.87405739 -18.43359375 62.484375 C-24.75776897 62.72575573 -30.76797146 62.06439429 -35.81640625 57.8515625 C-37.1171875 56.26953125 -37.1171875 56.26953125 -37.4921875 53.26953125 C-37.1171875 50.26953125 -37.1171875 50.26953125 -36.0546875 48.39453125 C-32.52197512 46.3432789 -28.72123518 47.00985405 -24.80078125 47.64453125 C-19.92284747 48.52200832 -19.92284747 48.52200832 -15.4921875 46.64453125 C-13.89149525 44.37869204 -13.89149525 44.37869204 -14.24609375 41.86328125 C-15.37181261 38.51136502 -16.84970719 37.47705111 -19.6796875 35.39453125 C-20.57945312 34.71003906 -21.47921875 34.02554688 -22.40625 33.3203125 C-23.30085937 32.64355469 -24.19546875 31.96679688 -25.1171875 31.26953125 C-34.35945985 23.77370836 -34.35945985 23.77370836 -36.1171875 19.26953125 C-36.65255176 13.64820652 -36.32884995 10.08702492 -33.1171875 5.26953125 C-24.01394237 -3.62682194 -11.57538367 -6.04397339 0 0 Z " fill="#1563D3" transform="translate(628.1171875,731.73046875)"/>
<path d="M0 0 C2.9375 0.375 2.9375 0.375 5.9375 2.375 C6.23046875 5.4140625 6.23046875 5.4140625 6.125 9 C6.09792969 10.18851563 6.07085937 11.37703125 6.04296875 12.6015625 C6.00816406 13.51679687 5.97335937 14.43203125 5.9375 15.375 C7.37029297 14.63443359 7.37029297 14.63443359 8.83203125 13.87890625 C16.31396796 10.12531589 23.31820162 6.6131556 31.9375 7.375 C35.125 8.4375 35.125 8.4375 36.9375 10.375 C37.5 13.3125 37.5 13.3125 36.9375 16.375 C33.62549608 21.20500572 28.11128833 22.45212538 22.734375 24.015625 C16.54990163 25.87529182 10.57134063 28.74115937 5.9375 33.375 C5.74905238 36.33631977 5.60991582 39.2856291 5.5 42.25 C4.62516534 61.68733466 4.62516534 61.68733466 0.9375 65.375 C-1.12109375 65.640625 -1.12109375 65.640625 -3.5 65.625 C-4.67369141 65.63273438 -4.67369141 65.63273438 -5.87109375 65.640625 C-8.0625 65.375 -8.0625 65.375 -11.0625 63.375 C-11.32714844 60.44848633 -11.32714844 60.44848633 -11.171875 56.70703125 C-11.14780579 56.03516281 -11.12373657 55.36329437 -11.09893799 54.67106628 C-11.01774364 52.50904065 -10.91519143 50.3486001 -10.8125 48.1875 C-10.75776157 46.78195308 -10.70436246 45.37635333 -10.65234375 43.97070312 C-9.21934814 7.0196001 -9.21934814 7.0196001 -5.1796875 2.06640625 C-3.0625 0.375 -3.0625 0.375 0 0 Z " fill="#1462D3" transform="translate(490.0625,726.625)"/>
<path d="M0 0 C1.7265625 1.296875 1.7265625 1.296875 3 3 C2.85071998 7.32912058 2.12832952 11.35059622 1.2890625 15.59765625 C1.02402361 16.9605466 0.76109759 18.3238491 0.5 19.6875 C0.29467651 20.75061401 0.29467651 20.75061401 0.08520508 21.83520508 C-1.20862532 29.08616097 -1.42532882 36.33236398 -1.4453125 43.68823242 C-1.57059639 50.36502062 -1.57059639 50.36502062 -3.74609375 53.58203125 C-6.18565888 55.11680099 -7.76660999 55.63600418 -10.625 55.875 C-11.40101563 55.95492187 -12.17703125 56.03484375 -12.9765625 56.1171875 C-15 56 -15 56 -17 54 C-17.90205906 43.79848576 -16.58715735 33.53030193 -15.1875 23.4375 C-15.0195639 22.11140629 -14.85224471 20.78523431 -14.68554688 19.45898438 C-14.51474609 18.19248047 -14.34394531 16.92597656 -14.16796875 15.62109375 C-14.01610107 14.4911499 -13.8642334 13.36120605 -13.70776367 12.19702148 C-11.83224632 3.72516921 -9.01647251 -0.96605063 0 0 Z " fill="#1362D3" transform="translate(715,736)"/>
<path d="M0 0 C2.9375 0.5625 2.9375 0.5625 5.375 2.1875 C6.9375 4.5625 6.9375 4.5625 6.875 7.625 C5.4975 11.94116667 5.4975 11.94116667 2.9375 13.5625 C-0.70935284 14.49078981 -3.00333514 15.02418725 -6.5 13.5 C-8.0625 11.5625 -8.0625 11.5625 -8.625 8.6875 C-7.70219595 3.56081082 -5.13328356 0.942848 0 0 Z " fill="#1A66D3" transform="translate(714.0625,712.4375)"/>
</svg>
