<svg width="59" height="60" viewBox="0 0 59 60" fill="none" xmlns="http://www.w3.org/2000/svg">
<path fill-rule="evenodd" clip-rule="evenodd" d="M29.4232 59.3222C27.9241 59.3078 26.4259 59.1789 24.9429 58.9354L0.85037 34.8429C0.606857 33.3598 0.477902 31.8616 0.463506 30.3625L29.4232 59.3222ZM9.02741 50.7583C5.87055 47.6015 3.58632 43.9024 2.17472 39.9609L19.8248 57.611C15.8833 56.1994 12.1843 53.9152 9.02741 50.7583ZM33.0299 59.1352C34.2036 59.0017 35.3708 58.7972 36.5245 58.5218L1.26396 23.2613C0.988528 24.415 0.784057 25.5821 0.650546 26.7559L33.0299 59.1352ZM42.3483 56.4584C41.4015 56.9122 40.4354 57.3121 39.4544 57.658L2.1277 20.3313C2.47367 19.3504 2.87355 18.3842 3.32732 17.4374L42.3483 56.4584ZM44.8116 55.128C45.6497 54.6217 46.4679 54.0695 47.2626 53.4715L6.31427 12.5231C5.71626 13.3178 5.16408 14.136 4.65773 14.9741L44.8116 55.128ZM50.3841 50.7583C50.042 51.1005 49.6934 51.4324 49.3389 51.754L8.03169 10.4468C8.35334 10.0923 8.68525 9.74375 9.02741 9.40159C9.37108 9.05792 9.72117 8.7246 10.0773 8.40161L51.3841 49.7084C51.0611 50.0646 50.7278 50.4147 50.3841 50.7583ZM53.1011 47.6317C53.6973 46.839 54.248 46.023 54.753 45.1871L14.5986 5.03269C13.7628 5.53774 12.9467 6.08839 12.154 6.68461L53.1011 47.6317ZM57.2826 39.8321C56.9367 40.8123 56.5371 41.7778 56.0835 42.7239L17.0619 3.70218C18.008 3.24867 18.9734 2.84898 19.9536 2.50312L57.2826 39.8321ZM58.1467 36.9025C58.4222 35.7491 58.6268 34.5822 58.7605 33.4087L26.377 1.02526C25.2036 1.15893 24.0367 1.36352 22.8832 1.63905L58.1467 36.9025ZM58.5593 25.3058C58.8043 26.7943 58.9339 28.298 58.9481 29.8026L29.9831 0.837638C31.4877 0.85182 32.9915 0.981408 34.4799 1.2264L58.5593 25.3058ZM57.2316 20.1843C55.8196 16.2483 53.5371 12.5545 50.3841 9.40159C47.2312 6.24864 43.5374 3.96616 39.6014 2.55415L57.2316 20.1843Z" fill="#212122"/>
</svg>
