<svg width="1140" height="381" viewBox="0 0 1140 381" fill="none" xmlns="http://www.w3.org/2000/svg">
<path d="M41 39.1593H1139V379.159H41V39.1593Z" stroke="#171719" stroke-width="2"/>
<rect width="1103" height="343" transform="translate(0 0.159302)" fill="url(#paint0_linear_215_2)"/>
<path fill-rule="evenodd" clip-rule="evenodd" d="M985.923 209.434C982.15 209.398 978.379 209.073 974.646 208.459L914.112 147.926C913.498 144.193 913.174 140.422 913.137 136.648L985.923 209.434ZM934.661 187.911C926.732 179.982 920.993 170.692 917.445 160.793L961.779 205.127C951.88 201.579 942.59 195.84 934.661 187.911ZM994.987 208.964C997.934 208.628 1000.86 208.115 1003.76 207.424L915.148 118.811C914.456 121.707 913.943 124.637 913.608 127.584L994.987 208.964ZM1018.41 202.234C1016.03 203.377 1013.59 204.383 1011.13 205.254L917.318 111.446C918.188 108.977 919.195 106.545 920.337 104.163L1018.41 202.234ZM1024.6 198.89C1026.7 197.622 1028.75 196.238 1030.74 194.74L927.831 91.8306C926.333 93.822 924.95 95.8721 923.681 97.972L1024.6 198.89ZM1038.6 187.911C1037.74 188.775 1036.86 189.613 1035.96 190.425L932.146 86.6112C932.958 85.7156 933.797 84.8353 934.661 83.9712C935.522 83.11 936.399 82.2746 937.292 81.4651L1041.11 185.28C1040.3 186.172 1039.46 187.05 1038.6 187.911ZM1045.42 180.061C1046.93 178.064 1048.31 176.007 1049.59 173.9L948.672 72.9857C946.565 74.2583 944.508 75.6461 942.51 77.1491L1045.42 180.061ZM1055.94 160.449C1055.07 162.91 1054.07 165.333 1052.93 167.709L954.863 69.6425C957.238 68.5044 959.662 67.5012 962.123 66.633L1055.94 160.449ZM1058.11 153.086C1058.8 150.187 1059.32 147.253 1059.65 144.304L978.268 62.919C975.318 63.2549 972.385 63.769 969.486 64.4615L1058.11 153.086ZM1059.15 123.977C1059.76 127.705 1060.09 131.472 1060.12 135.24L987.331 62.4479C991.1 62.4836 994.866 62.8073 998.594 63.4192L1059.15 123.977ZM1055.83 111.116C1052.28 101.207 1046.54 91.9074 1038.6 83.9712C1030.66 76.0349 1021.36 70.293 1011.46 66.7456L1055.83 111.116Z" fill="url(#paint1_linear_215_2)"/>
<path fill-rule="evenodd" clip-rule="evenodd" d="M628.846 252.824C628.833 254.156 628.719 255.486 628.503 256.804L607.125 278.182C605.807 278.398 604.476 278.512 603.145 278.525L628.846 252.824ZM621.247 270.926C618.446 273.727 615.163 275.754 611.666 277.007L627.327 261.345C626.075 264.843 624.048 268.125 621.247 270.926ZM628.679 249.624C628.561 248.585 628.38 247.552 628.136 246.531L596.852 277.816C597.873 278.059 598.906 278.24 599.945 278.359L628.679 249.624ZM626.304 241.358C626.707 242.2 627.063 243.059 627.37 243.931L594.252 277.049C593.38 276.742 592.521 276.387 591.679 275.983L626.304 241.358ZM625.123 239.172C624.675 238.431 624.186 237.706 623.657 237.003L587.324 273.336C588.027 273.865 588.751 274.354 589.493 274.802L625.123 239.172ZM621.247 234.229C621.552 234.534 621.847 234.844 622.134 235.16L585.481 271.813C585.165 271.526 584.855 271.231 584.55 270.926C584.246 270.622 583.95 270.311 583.664 269.996L620.317 233.343C620.632 233.629 620.942 233.925 621.247 234.229ZM618.474 231.82C617.77 231.29 617.045 230.8 616.302 230.352L580.673 265.981C581.121 266.724 581.611 267.449 582.14 268.153L618.474 231.82ZM611.547 228.106C612.418 228.414 613.276 228.768 614.116 229.171L579.492 263.795C579.089 262.955 578.734 262.097 578.427 261.227L611.547 228.106ZM608.947 227.34C607.926 227.096 606.893 226.915 605.853 226.797L577.118 255.532C577.236 256.572 577.417 257.605 577.661 258.627L608.947 227.34ZM598.673 226.973C599.991 226.757 601.322 226.643 602.654 226.63L576.951 252.333C576.964 251.001 577.078 249.67 577.294 248.352L598.673 226.973ZM594.132 228.148C590.634 229.401 587.351 231.428 584.55 234.229C581.749 237.031 579.722 240.313 578.469 243.811L594.132 228.148Z" fill="#AD13FB"/>
<circle cx="997.305" cy="197.975" r="3.00854" fill="#AC11FF"/>
<defs>
<linearGradient id="paint0_linear_215_2" x1="646.11" y1="27.5312" x2="463.3" y2="471.113" gradientUnits="userSpaceOnUse">
<stop stop-color="#17171A"/>
<stop offset="1" stop-color="#17171A" stop-opacity="0"/>
</linearGradient>
<linearGradient id="paint1_linear_215_2" x1="892.71" y1="222.139" x2="1041.27" y2="78.2953" gradientUnits="userSpaceOnUse">
<stop stop-color="#353535"/>
<stop offset="1" stop-color="#353535" stop-opacity="0"/>
</linearGradient>
</defs>
</svg>
