<svg width="107" height="107" viewBox="0 0 107 107" fill="none" xmlns="http://www.w3.org/2000/svg">
<rect x="53.6713" y="1.1071" width="74.0851" height="74.0851" rx="15.5" transform="rotate(45 53.6713 1.1071)" fill="#0A0A0C" stroke="#1C1C1C"/>
<mask id="mask0_6_293" style="mask-type:alpha" maskUnits="userSpaceOnUse" x="29" y="29" width="49" height="49">
<rect x="29.125" y="29.0997" width="48" height="48" fill="#D9D9D9"/>
</mask>
<g mask="url(#mask0_6_293)">
</g>
<g clip-path="url(#clip0_6_293)">
<path d="M72.0174 51.8368L63.3686 43.1392C62.8371 42.6041 61.9498 42.5797 61.386 43.0847C60.8231 43.5892 60.7969 44.4319 61.3289 44.9666L69.0694 52.75L61.3289 60.5344C60.7969 61.0691 60.8231 61.9113 61.386 62.4163C61.6571 62.659 62.0035 62.7793 62.3486 62.7793C62.7212 62.7793 63.0933 62.6391 63.3687 62.3625L72.0175 53.6646C72.5275 53.1512 72.5275 52.3497 72.0174 51.8368Z" fill="#E6E6E6"/>
<path d="M46.0715 60.5339L38.3316 52.75L46.0715 44.9662C46.6031 44.4315 46.5774 43.5888 46.014 43.0843C45.4511 42.5797 44.5629 42.6041 44.0314 43.1388L35.3826 51.8364C34.8726 52.3493 34.8726 53.1512 35.3826 53.6642L44.0318 62.3622C44.3076 62.6396 44.6793 62.7793 45.0519 62.7793C45.3969 62.7793 45.7434 62.6586 46.014 62.4159C46.5779 61.9113 46.6031 61.0687 46.0715 60.5339Z" fill="#E6E6E6"/>
<path d="M55.969 38.6538C55.2037 38.5438 54.4875 39.0425 54.3706 39.769L50.2566 65.3291C50.1397 66.056 50.6657 66.7354 51.4314 66.8463C51.5034 66.8565 51.5744 66.8614 51.6451 66.8614C52.3262 66.8614 52.9237 66.3897 53.0298 65.7312L57.1439 40.171C57.2607 39.4441 56.7348 38.7648 55.969 38.6538Z" fill="#E6E6E6"/>
</g>
<defs>
<clipPath id="clip0_6_293">
<rect width="37.4" height="35.5" fill="white" transform="translate(35 35)"/>
</clipPath>
</defs>
</svg>
