<svg width="107" height="107" viewBox="0 0 107 107" fill="none" xmlns="http://www.w3.org/2000/svg">
<rect x="53.4995" y="0.851638" width="74.0851" height="74.0851" rx="15.5" transform="rotate(45 53.4995 0.851638)" fill="#0A0A0C" stroke="#1C1C1C"/>
<mask id="mask0_6_323" style="mask-type:alpha" maskUnits="userSpaceOnUse" x="29" y="28" width="49" height="49">
<rect x="29.4375" y="28.8442" width="48" height="48" fill="#D9D9D9"/>
</mask>
<g mask="url(#mask0_6_323)">
<path d="M57.4344 69.544C57.2344 69.544 57.0677 69.4774 56.9344 69.344C56.801 69.2107 56.7344 69.044 56.7344 68.844C56.7344 68.644 56.801 68.4774 56.9344 68.344C57.0677 68.2107 57.2344 68.144 57.4344 68.144C59.4344 68.144 61.151 67.736 62.5844 66.92C64.0177 66.1027 64.7344 65.0774 64.7344 63.844C64.7344 62.8774 64.2677 62.0107 63.3344 61.244C62.401 60.4774 61.0844 59.8774 59.3844 59.444L60.5344 58.344C62.3677 58.8774 63.7597 59.6274 64.7104 60.594C65.6597 61.5607 66.1344 62.644 66.1344 63.844C66.1344 65.644 65.2177 67.044 63.3844 68.044C61.551 69.044 59.5677 69.544 57.4344 69.544ZM41.4844 55.294C39.8844 54.7607 38.693 54.102 37.9104 53.318C37.1264 52.5354 36.7344 51.7107 36.7344 50.844C36.7344 49.8107 37.1844 48.894 38.0844 48.094C38.9844 47.294 40.651 46.3607 43.0844 45.294C45.2844 44.3274 46.7757 43.5354 47.5584 42.918C48.3424 42.302 48.7344 41.6107 48.7344 40.844C48.7344 39.944 48.2597 39.1687 47.3104 38.518C46.3597 37.8687 45.0677 37.544 43.4344 37.544C42.4677 37.544 41.5844 37.694 40.7844 37.994C39.9844 38.294 39.301 38.7274 38.7344 39.294C38.601 39.4274 38.451 39.502 38.2844 39.518C38.1177 39.5354 37.951 39.494 37.7844 39.394C37.6177 39.2607 37.5257 39.102 37.5084 38.918C37.4924 38.7354 37.551 38.5607 37.6844 38.394C38.151 37.7607 38.9344 37.2274 40.0344 36.794C41.1344 36.3607 42.2677 36.144 43.4344 36.144C45.401 36.144 47.0097 36.594 48.2604 37.494C49.5097 38.394 50.1344 39.5107 50.1344 40.844C50.1344 41.9107 49.6844 42.8694 48.7844 43.72C47.8844 44.5694 46.1677 45.5274 43.6344 46.594C41.5344 47.494 40.093 48.2607 39.3104 48.894C38.5264 49.5274 38.1344 50.1774 38.1344 50.844C38.1344 51.4774 38.501 52.0854 39.2344 52.668C39.9677 53.252 41.0844 53.7774 42.5844 54.244L41.4844 55.294ZM65.4844 46.294L61.3344 42.144L62.9844 40.494C63.4177 40.0607 63.893 39.8354 64.4104 39.818C64.9264 39.802 65.401 40.0107 65.8344 40.444L67.1844 41.794C67.6177 42.2274 67.8264 42.7027 67.8104 43.22C67.793 43.736 67.5677 44.2107 67.1344 44.644L65.4844 46.294ZM40.9844 66.644H43.1344L59.9344 49.844L57.7844 47.694L40.9844 64.494V66.644ZM39.5844 68.044V63.894L57.7844 45.694L61.9344 49.844L43.7344 68.044H39.5844Z" fill="#E6E6E6"/>
</g>
</svg>
