<svg width="107" height="108" viewBox="0 0 107 108" fill="none" xmlns="http://www.w3.org/2000/svg">
<rect x="53.8328" y="1.68074" width="74.0851" height="74.0851" rx="15.5" transform="rotate(45 53.8328 1.68074)" fill="#0A0A0C" stroke="#1C1C1C"/>
<mask id="mask0_6_414" style="mask-type:alpha" maskUnits="userSpaceOnUse" x="29" y="29" width="49" height="49">
<rect x="29.4349" y="29.6182" width="48" height="48" fill="#D9D9D9"/>
</mask>
<g mask="url(#mask0_6_414)">
<path d="M48.0287 69.0178V67.6178H52.0287V63.6178H39.0287C38.162 63.6178 37.4453 63.3344 36.8787 62.7678C36.312 62.2011 36.0287 61.4844 36.0287 60.6178V41.2178C36.0287 40.3511 36.312 39.6344 36.8787 39.0678C37.4453 38.5011 38.162 38.2178 39.0287 38.2178H67.8287C68.6953 38.2178 69.412 38.5011 69.9787 39.0678C70.5453 39.6344 70.8287 40.3511 70.8287 41.2178V60.6178C70.8287 61.4844 70.5453 62.2011 69.9787 62.7678C69.412 63.3344 68.6953 63.6178 67.8287 63.6178H54.8287V67.6178H58.8287V69.0178H48.0287ZM39.0287 62.2178H67.8287C68.2287 62.2178 68.5953 62.0511 68.9287 61.7178C69.262 61.3844 69.4287 61.0178 69.4287 60.6178V41.2178C69.4287 40.8178 69.262 40.4511 68.9287 40.1178C68.5953 39.7844 68.2287 39.6178 67.8287 39.6178H39.0287C38.6287 39.6178 38.262 39.7844 37.9287 40.1178C37.5953 40.4511 37.4287 40.8178 37.4287 41.2178V60.6178C37.4287 61.0178 37.5953 61.3844 37.9287 61.7178C38.262 62.0511 38.6287 62.2178 39.0287 62.2178Z" fill="#E6E6E6"/>
</g>
</svg>
